<?xml version="1.0" encoding="UTF-8"?>
<svg id="Layer_1" xmlns="http://www.w3.org/2000/svg" version="1.1" viewBox="0 0 1190.6 841.9">
  <!-- Generator: Adobe Illustrator 30.4.0, SVG Export Plug-In . SVG Version: 2.1.4 Build 226)  -->
  <defs>
    <style>
      .st0 {
        fill: #8cd1ef;
      }

      .st1 {
        fill: #0098db;
      }

      .st2 {
        fill: #0b2265;
      }
    </style>
  </defs>
  <g>
    <path class="st2" d="M663.7,556.5c-21,0-38-17.1-38-38s17.1-38,38-38,24.4,6.5,31.3,16.5c3-9.2,7.9-17.6,14.1-24.8-11.7-11.5-27.7-18.6-45.4-18.6-30.9,0-56.7,21.7-63.3,50.6-6.2-29.3-32.3-51.4-63.5-51.4s-57.3,22.1-63.5,51.4c-6.2-29.3-32.3-51.4-63.4-51.4s-57.1,22-63.4,51.3c-5.3-21-22.1-35.2-50.7-43.4l-23-6.9c-23-6.5-30.7-13.5-30.7-27.7s12.3-27.3,32.8-27.3,31.9,11.1,34.2,29.6l.6,4.9h31.2l-.5-6.1c-2.9-34.5-29.1-57.6-65.2-57.6s-65.5,24-65.5,57,17.7,46.3,52.7,56.5l24,6.9c20.2,5.8,29.6,15.8,29.6,31.3s-15.5,31.4-38.6,31.4-37.5-12.3-41.4-34.6l-.8-4.6h-32.2l.9,6.4c5.6,38.2,33.6,61.9,73.2,61.9s63.5-19.8,69.9-48.7c7,28.3,32.5,49.4,62.9,49.4s46.8-14.4,57.6-35.3h-33.8c-6.5,5.3-14.8,8.4-23.8,8.4-16.6,0-30.8-10.7-35.9-25.6h99.1c5.8,30,32.1,52.7,63.7,52.7s27.3-4.6,38-12.4v11.8h25.7v-47.8c7,28.3,32.6,49.3,63,49.3s32.6-6.6,44.2-17.5c-6-7.3-10.7-15.9-13.5-25.2-6.9,9.5-18.1,15.8-30.8,15.8ZM374.5,503.9c5.5-14.2,19.3-24.4,35.4-24.4s29.9,10.1,35.4,24.4h-70.9ZM536.9,555.7c-21,0-38-17.1-38-38s17.1-38,38-38,38,17.1,38,38-17.1,38-38,38Z"/>
    <path class="st2" d="M980.9,478.2h0c-.1-.3-.3-.5-.5-.7-.3-.5-.6-1-1-1.5-.3-.5-.6-.9-1-1.4-.3-.4-.5-.7-.8-1-.4-.6-.9-1.1-1.3-1.7-.2-.2-.3-.4-.5-.5-.4-.5-.9-1-1.3-1.5,0,0,0-.1,0-.2-2.8-3-6.1-5.7-9.7-7.9-.1,0-.3-.2-.4-.3,0,0,0,0-.1,0-.9-.5-1.7-1-2.6-1.5,0,0,0,0-.1,0-.4-.2-.8-.4-1.2-.6-1.9-1-3.9-1.7-6-2.3-4.4-1.3-8.9-2-13.2-2.1-12.7-.3-24.8,4.3-34,13-9.2-8.7-21.2-13.3-34-13-4.3,0-8.8.8-13.2,2.1-2.1.6-4.1,1.4-6,2.3-.4.2-.8.4-1.2.6,0,0,0,0-.1,0-.9.5-1.8,1-2.6,1.5,0,0,0,0-.1,0-.1,0-.3.2-.4.3-3.7,2.3-6.9,5-9.7,7.9,0,0,0,.1,0,.2-.5.5-.9,1-1.3,1.5-.2.2-.3.4-.5.5-.5.5-.9,1.1-1.3,1.7-.3.3-.5.7-.8,1-.3.5-.7.9-1,1.4-.3.5-.7,1-1,1.5-.1.2-.3.5-.5.7h0c-4.3,7.3-6.6,15.6-6.6,24.2v1.5c-7-28.2-32.6-49.2-63-49.2s-64.9,29.1-64.9,64.9,29.1,64.9,64.9,64.9,55.9-21,63-49.2v46.5h29.5v-78.9c0-7.5,4.3-14.5,11-17.3,0,0,0,0,0,0,1-.4,2-.7,3-.9,1.1-.2,2.3-.4,3.4-.4,7.8-.1,14.4,4.6,17.1,11.4,0,0,0,0,0,0,.4,1.1.7,2.2.9,3.4,0,.4.1.8.2,1.2,0,.4.1.8.1,1.2,0,.2,0,.5,0,.7v79.6h29.9v-79.6c0-.2,0-.5,0-.7,0-.4,0-.8.1-1.2,0-.4,0-.8.2-1.2.2-1.2.5-2.3.9-3.4,0,0,0,0,0,0,2.7-6.8,9.3-11.6,17.1-11.4,1.1,0,2.2.2,3.4.4,1,.2,2,.5,3,.9,0,0,0,0,0,0,6.7,2.8,11,9.8,11,17.3v78.9h29.5v-79.5c0-8.7-2.3-17-6.6-24.2ZM764.1,557.7c-21,0-38-17.1-38-38s17.1-38,38-38,38,17.1,38,38-17.1,38-38,38Z"/>
  </g>
  <g>
    <path class="st1" d="M601.4,418.4c-4.7,0-9.4-.3-14.2-1l1.2-9c47.5,6.4,94-23.2,108.1-68.8,4.2-13.4,5.4-28,3.6-42l9-1.2c2,15.3.6,31.2-4,45.9-14.1,45.3-57.2,76.1-103.9,76.1Z"/>
    <path class="st2" d="M601.8,220.4c-13.1,0-25.5,2.8-36.7,7.9l11.9-.8-2.2,6.1,4.4,2.5,11.6,5.3,5-5,12.4,3.3,13.3.3-1.4,8.8,7.3,17.9,15.6,11.8,2.8,5.5,15.2-3.3-4.4,17.7-21,21,3.9,23-15.2,8.6,1.7,9.7-6.1,3.6v3.3l-8.6,8.3-3,6.6-9.3,2.8-8.2-2.8-9.1-25.5-5-11.3,5-11.6-3.9-15.8-7.2-7.7,2.8-4.4-2.5-7.2-12.8-6.7-10.8,5.6-4.5-4.5-8.5,4.5-16.9-18.4c-3.5,9.6-5.4,19.9-5.4,30.7,0,49.5,40.1,89.7,89.7,89.7s89.7-40.1,89.7-89.7-40.1-89.7-89.7-89.7ZM644.7,376.9l-7.2-5.9,2.5-14,8.4-7,7,13.4-10.6,13.4Z"/>
    <path class="st0" d="M676.3,218.1c-21-17-47.4-26.4-74.5-26.4s-20.2,1.3-29.9,3.8l-2.3-8.8c10.5-2.7,21.3-4.1,32.2-4.1,29.1,0,57.6,10.1,80.2,28.4l-5.7,7.1Z"/>
    <path class="st1" d="M572.9,414.7c-17.2-4.8-33.1-13.9-46.2-26.5l6.3-6.6c12,11.6,26.7,20,42.4,24.3l-2.4,8.8Z"/>
    <path class="st1" d="M515.4,375.6c-11-14.4-18.2-31.6-20.7-49.6l9-1.3c2.3,16.5,8.9,32.2,18.9,45.4l-7.2,5.5Z"/>
    <path class="st1" d="M644.4,220.9c-17-8.4-35.4-11.6-53.1-9.3l-1.2-9c19.5-2.6,39.7.9,58.3,10.1l-4,8.2Z"/>
    <path class="st1" d="M693.5,272.4c-7.2-17.1-20-32.7-36.1-43.8l5.2-7.5c17.7,12.2,31.3,28.8,39.3,47.7l-8.4,3.5Z"/>
    <path class="st0" d="M602.2,439c-20.5,0-40.8-5-59-14.4l4.2-8.1c18,9.4,38.3,14,58.7,13.3,10.1-.3,20.1-2,29.8-4.8l2.6,8.7c-10.4,3.1-21.2,4.8-32.1,5.2-1.4,0-2.9,0-4.3,0Z"/>
  </g>
</svg>