<?xml version="1.0" encoding="UTF-8"?>
<svg id="Layer_1" xmlns="http://www.w3.org/2000/svg" version="1.1" viewBox="0 0 1417.3 1417.3">
  <!-- Generator: Adobe Illustrator 30.4.0, SVG Export Plug-In . SVG Version: 2.1.4 Build 226)  -->
  <defs>
    <style>
      .st0 {
        fill: #fff;
      }

      .st0, .st1, .st2, .st3 {
        fill-rule: evenodd;
      }

      .st1 {
        fill: #0098db;
      }

      .st2 {
        fill: #212c57;
      }

      .st3 {
        fill: #00eef9;
      }
    </style>
  </defs>
  <path class="st2" d="M751.7,445.6c0,0-.2.1-.3.2L144,749.5c-.8.4-1.7,0-2.1-.7-.4-.8,0-1.7.7-2.1l607.4-303.7c.2,0,.4-.1.6-.2,0,0,.2-.1.3-.2,0,0,5.2-2.6,14-7,.8-.4,1.7,0,2.1.7.4.8,0,1.7-.7,2.1-8.8,4.4-14,7-14,7-.2,0-.4.1-.6.2h0Z"/>
  <path class="st2" d="M1103,936.3c4.7,2.3,9.3,4.7,14,7,.8.4,1.1,1.3.7,2.1-.4.8-1.3,1.1-2.1.7-4.7-2.3-9.3-4.7-14-7-.8-.4-1.1-1.3-.7-2.1.4-.8,1.3-1.1,2.1-.7h0ZM1072.2,920.9c4.6,2.3,9.3,4.6,14,7,.8.4,1.1,1.3.7,2.1-.4.8-1.3,1.1-2.1.7-4.7-2.4-9.4-4.7-14-7-.8-.4-1.1-1.3-.7-2.1.4-.8,1.3-1.1,2.1-.7h0ZM1041.4,905.5c4.5,2.3,9.2,4.6,14,7,.8.4,1.1,1.3.7,2.1-.4.8-1.3,1.1-2.1.7-4.8-2.4-9.5-4.7-14-7-.8-.4-1.1-1.3-.7-2.1.4-.8,1.3-1.1,2.1-.7h0ZM1010.6,890.1c4.3,2.2,9,4.5,14,7,.8.4,1.1,1.3.7,2.1-.4.8-1.3,1.1-2.1.7-5-2.5-9.7-4.8-14-7-.8-.4-1.1-1.3-.7-2.1.4-.8,1.3-1.1,2.1-.7h0ZM979.3,874.6c0,0-.2-.1-.3-.2l-607.4-303.7c-.8-.4-1.7,0-2.1.7-.4.8,0,1.7.7,2.1l607.4,303.7c.2,0,.4.1.6.2,0,0,.2.1.3.2,0,0,5.2,2.6,14,7,.8.4,1.7,0,2.1-.7.4-.8,0-1.7-.7-2.1-8.8-4.4-14-7-14-7-.2,0-.4-.1-.6-.2h0Z"/>
  <path class="st1" d="M604.3,676.1l274.9-137.5c3.2-1.6,7-1.6,10.3,0l247.6,123.8c5.7,2.8,8,9.7,5.1,15.4-2.8,5.7-9.7,8-15.4,5.1l-242.5-121.2-254.4,127.2,194,97c5.7,2.8,8,9.7,5.1,15.4-2.8,5.7-9.7,8-15.4,5.1l-209.3-104.7-254.4,127.2,229,114.5c5.7,2.8,8,9.7,5.1,15.4-2.8,5.7-9.7,8-15.4,5.1l-249.5-124.7c-3.9-1.9-6.3-5.9-6.3-10.3s2.5-8.3,6.3-10.3l259.5-129.8-150.1-75c-5.7-2.8-8-9.7-5.1-15.4,2.8-5.7,9.7-8,15.4-5.1l165.5,82.7h0Z"/>
  <path class="st2" d="M604.3,674.2l274.2-137.1c3.7-1.9,8.1-1.9,11.8,0l247.6,123.8c6.5,3.3,9.1,11.2,5.9,17.7-3.3,6.5-11.2,9.1-17.7,5.9l-241.7-120.9-250.6,125.3,190.9,95.4c6.5,3.3,9.1,11.2,5.9,17.7-3.3,6.5-11.2,9.1-17.7,5.9l-208.6-104.3-250.6,125.3,225.9,113c6.5,3.3,9.1,11.2,5.9,17.7-3.3,6.5-11.2,9.1-17.7,5.9l-249.5-124.7c-4.5-2.2-7.3-6.8-7.3-11.8s2.8-9.6,7.3-11.8l256.5-128.2-147-73.5c-6.5-3.3-9.1-11.2-5.9-17.7,3.3-6.5,11.2-9.1,17.7-5.9l164.7,82.4h0ZM603.6,677.7c.5.2,1,.2,1.5,0l274.9-137.5c2.7-1.4,6-1.4,8.7,0l247.6,123.8c4.8,2.4,6.8,8.3,4.4,13.1-2.4,4.8-8.3,6.8-13.1,4.4l-242.5-121.2c-.5-.2-1-.2-1.5,0l-254.4,127.2c-.6.3-.9.9-.9,1.5s.4,1.2.9,1.5l194,97c4.8,2.4,6.8,8.3,4.4,13.1-2.4,4.8-8.3,6.8-13.1,4.4l-209.3-104.7c-.5-.2-1-.2-1.5,0l-254.4,127.2c-.6.3-.9.9-.9,1.5s.4,1.2.9,1.5l229,114.5c4.8,2.4,6.8,8.3,4.4,13.1-2.4,4.8-8.3,6.8-13.1,4.4l-249.5-124.7c-3.3-1.7-5.4-5-5.4-8.7s2.1-7.1,5.4-8.7l259.5-129.8c.6-.3.9-.9.9-1.5s-.4-1.2-.9-1.5l-150.1-75c-4.8-2.4-6.8-8.3-4.4-13.1,2.4-4.8,8.3-6.8,13.1-4.4l165.5,82.7h0Z"/>
  <polygon class="st0" points="573.8 463.6 573.8 603.6 433.7 673.7 433.7 533.6 573.8 463.6 573.8 463.6"/>
  <path class="st2" d="M575.5,463.6c0-.6-.3-1.1-.8-1.5-.5-.3-1.1-.3-1.7,0l-140,70c-.6.3-.9.9-.9,1.5v140c0,.6.3,1.1.8,1.5.5.3,1.1.3,1.7,0l140-70c.6-.3.9-.9.9-1.5v-140h0ZM435.5,534.7v136.2l136.6-68.3v-136.2l-136.6,68.3h0Z"/>
  <polygon class="st0" points="993.8 743.7 993.8 813.7 853.8 883.7 853.8 813.7 993.8 743.7 993.8 743.7"/>
  <path class="st2" d="M995.5,743.7c0-.6-.3-1.1-.8-1.5-.5-.3-1.1-.3-1.7,0l-140,70c-.6.3-.9.9-.9,1.5v70c0,.6.3,1.1.8,1.5.5.3,1.1.3,1.7,0l140-70c.6-.3.9-.9.9-1.5v-70h0ZM855.5,814.7v66.2l136.6-68.3v-66.2l-136.6,68.3h0Z"/>
  <polygon class="st0" points="1273.9 603.6 1273.9 673.7 1133.9 743.7 1133.9 673.7 1273.9 603.6 1273.9 603.6"/>
  <path class="st2" d="M1275.6,603.6c0-.6-.3-1.1-.8-1.5-.5-.3-1.1-.3-1.7,0l-140,70c-.6.3-.9.9-.9,1.5v70c0,.6.3,1.1.8,1.5.5.3,1.1.3,1.7,0l140-70c.6-.3.9-.9.9-1.5v-70h0ZM1135.6,674.7v66.2l136.6-68.3v-66.2l-136.6,68.3h0Z"/>
  <polygon class="st0" points="713.8 883.7 713.8 953.7 573.8 1023.7 573.8 953.7 713.8 883.7 713.8 883.7"/>
  <path class="st2" d="M715.5,883.7c0-.6-.3-1.1-.8-1.5-.5-.3-1.1-.3-1.7,0l-140,70c-.6.3-.9.9-.9,1.5v70c0,.6.3,1.1.8,1.5.5.3,1.1.3,1.7,0l140-70c.6-.3.9-.9.9-1.5v-70h0ZM575.5,954.8v66.2l136.6-68.3v-66.2l-136.6,68.3h0Z"/>
  <polygon class="st0" points="433.7 533.6 433.7 673.7 293.7 603.6 293.7 463.6 433.7 533.6 433.7 533.6"/>
  <path class="st2" d="M435.5,533.6c0-.6-.4-1.2-.9-1.5l-140-70c-.5-.3-1.2-.2-1.7,0-.5.3-.8.9-.8,1.5v140c0,.6.4,1.2.9,1.5l140,70c.5.3,1.2.2,1.7,0,.5-.3.8-.9.8-1.5v-140h0ZM295.4,602.6l136.6,68.3v-136.2l-136.6-68.3v136.2h0Z"/>
  <polygon class="st0" points="853.8 813.7 853.8 883.7 713.8 813.7 713.8 743.7 853.8 813.7 853.8 813.7"/>
  <path class="st2" d="M855.5,813.7c0-.6-.4-1.2-.9-1.5l-140-70c-.5-.3-1.2-.2-1.7,0-.5.3-.8.9-.8,1.5v70c0,.6.4,1.2.9,1.5l140,70c.5.3,1.2.2,1.7,0,.5-.3.8-.9.8-1.5v-70h0ZM715.5,812.6l136.6,68.3v-66.2l-136.6-68.3v66.2h0Z"/>
  <polygon class="st0" points="1133.9 673.7 1133.9 743.7 993.8 673.7 993.8 603.6 1133.9 673.7 1133.9 673.7"/>
  <path class="st2" d="M1135.6,673.7c0-.6-.4-1.2-.9-1.5l-140-70c-.5-.3-1.2-.2-1.7,0-.5.3-.8.9-.8,1.5v70c0,.6.4,1.2.9,1.5l140,70c.5.3,1.2.2,1.7,0,.5-.3.8-.9.8-1.5v-70h0ZM995.5,672.6l136.6,68.3v-66.2l-136.6-68.3v66.2h0Z"/>
  <polygon class="st0" points="573.8 953.7 573.8 1023.7 433.7 953.7 433.7 883.7 573.8 953.7 573.8 953.7"/>
  <path class="st2" d="M575.5,953.7c0-.6-.4-1.2-.9-1.5l-140-70c-.5-.3-1.2-.2-1.7,0-.5.3-.8.9-.8,1.5v70c0,.6.4,1.2.9,1.5l140,70c.5.3,1.2.2,1.7,0,.5-.3.8-.9.8-1.5v-70h0ZM435.5,952.6l136.6,68.3v-66.2l-136.6-68.3v66.2h0Z"/>
  <polygon class="st3" points="433.7 393.6 573.8 463.6 433.7 533.6 293.7 463.6 433.7 393.6 433.7 393.6"/>
  <path class="st2" d="M434.5,392.1c-.5-.2-1-.2-1.5,0l-140,70c-.6.3-.9.9-.9,1.5s.4,1.2.9,1.5l140,70c.5.2,1,.2,1.5,0l140-70c.6-.3.9-.9.9-1.5s-.4-1.2-.9-1.5l-140-70h0ZM297.5,463.6l136.2,68.1,136.2-68.1-136.2-68.1-136.2,68.1h0Z"/>
  <polygon class="st3" points="853.8 673.7 993.8 743.7 853.8 813.7 713.8 743.7 853.8 673.7 853.8 673.7"/>
  <path class="st2" d="M854.6,672.1c-.5-.2-1-.2-1.5,0l-140,70c-.6.3-.9.9-.9,1.5s.4,1.2.9,1.5l140,70c.5.2,1,.2,1.5,0l140-70c.6-.3.9-.9.9-1.5s-.4-1.2-.9-1.5l-140-70h0ZM717.6,743.7l136.2,68.1,136.2-68.1-136.2-68.1-136.2,68.1h0Z"/>
  <polygon class="st3" points="1133.9 533.6 1273.9 603.6 1133.9 673.7 993.8 603.6 1133.9 533.6 1133.9 533.6"/>
  <path class="st2" d="M1134.6,532.1c-.5-.2-1-.2-1.5,0l-140,70c-.6.3-.9.9-.9,1.5s.4,1.2.9,1.5l140,70c.5.2,1,.2,1.5,0l140-70c.6-.3.9-.9.9-1.5s-.4-1.2-.9-1.5l-140-70h0ZM997.7,603.6l136.2,68.1,136.2-68.1-136.2-68.1-136.2,68.1h0Z"/>
  <polygon class="st3" points="573.8 813.7 713.8 883.7 573.8 953.7 433.7 883.7 573.8 813.7 573.8 813.7"/>
  <path class="st2" d="M574.5,812.1c-.5-.2-1-.2-1.5,0l-140,70c-.6.3-.9.9-.9,1.5s.4,1.2.9,1.5l140,70c.5.2,1,.2,1.5,0l140-70c.6-.3.9-.9.9-1.5s-.4-1.2-.9-1.5l-140-70h0ZM437.6,883.7l136.2,68.1,136.2-68.1-136.2-68.1-136.2,68.1h0Z"/>
</svg>