<?xml version="1.0" encoding="UTF-8"?>
<svg id="Layer_1" xmlns="http://www.w3.org/2000/svg" version="1.1" viewBox="0 0 1417.3 1417.3">
  <!-- Generator: Adobe Illustrator 30.4.0, SVG Export Plug-In . SVG Version: 2.1.4 Build 226)  -->
  <defs>
    <style>
      .st0 {
        fill: #00eef9;
      }

      .st1 {
        fill: #fff;
      }

      .st2 {
        fill: #0b2265;
      }

      .st3 {
        fill: #b4f5fc;
      }
    </style>
  </defs>
  <g>
    <path class="st2" d="M910.9,989.4l-294.4-170c-47.9-27.7-131.7-24.2-187,7.7l-267.5,154.5c-27.5,15.9-42.8,35.8-45.4,55.3-.1,1-.2,2.1-.3,3.1,0,.9,0,1.7,0,2.6,0,17.6,10.6,34.5,32.4,47l120,69.3,174.4,100.7c21.3,12.3,49.6,18.4,79.3,18.7h0s192.8,0,192.8,0v-75.5l76-43.9,106.5-61.5c.9-.5,1.9-1.1,2.8-1.6,1.6-1,3.2-2,4.7-3,.4-.2.8-.5,1.1-.7,1.5-1,3-2,4.4-3.1,1.9-1.4,3.7-2.8,5.5-4.3,1-.8,2-1.7,3-2.5.9-.8,1.8-1.6,2.6-2.4.7-.6,1.3-1.3,1.9-1.9,3.8-3.8,7-7.7,9.7-11.6.8-1.1,1.5-2.2,2.2-3.4h0c.4-.7.8-1.4,1.2-2.1.8-1.4,1.5-2.8,2.1-4.2.3-.7.6-1.4.9-2.1.2-.6.5-1.1.7-1.7.5-1.3.9-2.7,1.3-4,.2-.7.4-1.3.5-2,.2-.7.3-1.3.4-2,.2-1.3.4-2.7.6-4,.1-1.3.2-2.7.2-4h0c.2-17.8-10.5-34.8-32.4-47.4Z"/>
    <path class="st2" d="M714.8,1282.5h-192.8c-31.5-.3-60.4-7.1-81.4-19.2l-294.4-170c-22.3-12.9-34.5-30.9-34.5-50.7,0-.9,0-1.9.1-2.9,0-1,.2-2.2.3-3.3,2.9-21.7,19.8-42.5,47.5-58.5l267.5-154.5c56.5-32.6,142.3-36.1,191.3-7.7l294.4,170c22.5,12.9,34.7,31.1,34.5,51.1,0,.2,0,.4,0,.6,0,1.2-.1,2.5-.2,3.8-.2,1.5-.4,3-.6,4.4l-.5,2.2c-.1.6-.3,1.2-.5,1.8-.5,1.8-1,3.3-1.5,4.7-.2.7-.5,1.3-.8,1.9l-.9,2.2c-.7,1.6-1.5,3.1-2.3,4.6-.4.8-.8,1.4-1.1,2,0,0,0,.2-.2.3-.7,1.2-1.5,2.4-2.3,3.6-2.8,4.1-6.2,8.2-10.2,12.2-.6.6-1.2,1.2-1.9,1.9-.9.9-1.9,1.8-2.8,2.6-.9.8-2,1.8-3.1,2.6-1.7,1.5-3.6,2.9-5.6,4.4-1.4,1.1-2.9,2.1-4.5,3.2l-1.1.7c-1.5,1-3,1.9-4.5,2.9,0,0-.4.2-.4.2l-2.8,1.7-180.4,104.2v73c0,2.4-1.9,4.3-4.3,4.3ZM535.2,804.9c-36,0-74,8.8-103.7,25.9l-267.5,154.5c-25.4,14.7-40.8,33.2-43.3,52.1,0,.8-.2,1.8-.2,2.7,0,.9,0,1.7,0,2.4,0,16.7,10.7,32,30.2,43.3l294.4,170c19.8,11.4,47.2,17.8,77.2,18.1h188.5s0-71.2,0-71.2c0-1.5.8-2.9,2.1-3.7l185.3-107c1.7-1.1,3.2-2,4.5-2.9l1.2-.8c1.4-1,2.8-2,4.2-3,1.9-1.4,3.6-2.7,5.2-4.1,1.1-.8,2-1.6,2.8-2.4.9-.8,1.7-1.5,2.5-2.3.7-.6,1.3-1.2,1.8-1.8,3.6-3.6,6.7-7.3,9.3-11,.7-1,1.3-1.9,1.9-2.9,0-.1.1-.2.2-.3.4-.6.7-1.2,1.1-1.8.8-1.4,1.4-2.7,2-4l.9-2.1c.2-.5.4-1,.6-1.5.4-1.2.8-2.4,1.2-3.6.2-.9.4-1.3.5-1.8l.4-2c.2-1,.4-2.3.5-3.5.1-1.1.2-2.3.2-3.6,0-.1,0-.3,0-.4,0-16.6-10.7-31.9-30.2-43.1h0l-294.4-170c-21.1-12.2-49.4-18.2-79.1-18.2ZM943.2,1036.7h0,0Z"/>
  </g>
  <g>
    <g>
      <path class="st1" d="M1132,389.6h0c0,1.3,0,2.7-.2,4-.2,1.3-.3,2.7-.6,4-.2.7-.3,1.3-.4,2-.2.7-.3,1.3-.5,2-.4,1.3-.8,2.7-1.3,4-.2.6-.4,1.1-.7,1.7-.3.7-.6,1.4-.9,2.1-.6,1.4-1.4,2.8-2.1,4.2-.4.7-.8,1.4-1.2,2.1h0c-.7,1.2-1.4,2.3-2.2,3.4-2.7,3.9-5.9,7.8-9.7,11.6-.6.6-1.3,1.3-1.9,1.9-.8.8-1.7,1.6-2.6,2.4-.9.9-1.9,1.7-3,2.5-1.7,1.5-3.5,2.9-5.5,4.3-1.4,1-2.9,2.1-4.4,3.1-.4.2-.8.5-1.1.7-1.5,1-3.1,2-4.7,3-.9.5-1.9,1.1-2.8,1.6l-106.5,61.5-161,92.9c-55.4,32-139.1,35.4-187.1,7.8l-174.4-100.7-120-69.3c-21.7-12.6-32.4-29.4-32.4-47,0-.9,0-1.7,0-2.6,0-1,.2-2.1.3-3.1,2.6-19.5,17.9-39.4,45.4-55.3l267.5-154.5c55.3-32,139.1-35.4,187-7.7l294.4,170c21.9,12.6,32.5,29.6,32.4,47.4Z"/>
      <path class="st2" d="M712.8,635.3c-31.2,0-61.1-6.3-83.4-19.1l-294.4-170c-22.3-12.9-34.5-30.9-34.5-50.7,0-.9,0-1.9.1-2.9,0-1,.2-2.2.3-3.3,2.9-21.7,19.8-42.5,47.5-58.5l267.5-154.5c56.5-32.6,142.3-36.1,191.3-7.7l294.4,170c22.5,12.9,34.7,31.1,34.5,51.1v1.9c-.1.8-.2,1.6-.3,2.4-.2,1.5-.4,3-.6,4.4l-.5,2.2c-.1.6-.3,1.2-.5,1.8-.5,1.8-1,3.2-1.5,4.7-.2.7-.5,1.3-.8,1.9l-.9,2.2c-.7,1.6-1.5,3.1-2.3,4.6-.2.4-.5.8-.7,1.2h0s-.6,1.1-.6,1.1c-.7,1.2-1.5,2.4-2.3,3.6-2.8,4.1-6.3,8.2-10.2,12.2-.5.6-1.2,1.2-1.9,1.8-1,.9-1.9,1.8-2.9,2.6-.9.9-2,1.8-3.1,2.6-1.7,1.4-3.6,2.9-5.6,4.4-1.4,1.1-2.9,2.1-4.5,3.2l-1.1.7c-1.4.9-2.9,1.9-4.4,2.8l-3.1,1.8-267.9,154.6c-30.8,17.8-70.4,26.9-108,26.9ZM724,157.8c-36,0-74,8.8-103.7,25.9l-267.5,154.5c-25.4,14.7-40.8,33.2-43.3,52.1,0,.9-.2,1.8-.2,2.7,0,.9,0,1.7,0,2.4,0,16.7,10.7,32,30.2,43.3l294.4,170c46.7,26.9,128.7,23.5,182.8-7.8l270.7-156.3c1.4-.9,2.8-1.7,4.1-2.6l1.2-.8c1.4-1,2.8-2,4.2-3,1.9-1.4,3.6-2.7,5.2-4.1,1.1-.8,2-1.6,2.8-2.4.9-.8,1.7-1.5,2.5-2.3.7-.7,1.3-1.2,1.8-1.8,3.6-3.6,6.7-7.3,9.3-11,.5-.7,1-1.5,1.4-2.2l.6-1c.4-.7.8-1.3,1.1-2,.7-1.3,1.4-2.6,2-3.9l.9-2.1c.2-.5.4-1,.6-1.5.4-1.2.8-2.4,1.2-3.6.2-.8.4-1.3.5-1.8l.4-2c.2-1,.4-2.3.5-3.5.1-1.1.2-2.3.2-3.6v-1.1c-.3-16.3-11-31.4-30.2-42.5l-294.4-170c-21.1-12.2-49.4-18.2-79.1-18.2Z"/>
    </g>
    <g>
      <path class="st1" d="M1132,389.6c0,1.3,0,2.7-.2,4,.1-1.3.2-2.7.2-4h0Z"/>
      <path class="st2" d="M1136,394.1l-8.5-.9c.1-1.2.2-2.5.2-3.7v-1.8s8.8-8.2,8.8-8.2l-.2,10.2c0,1.5-.1,2.9-.3,4.4Z"/>
    </g>
    <g>
      <path class="st3" d="M1132,389.6v170.2h0c-.2,11.6-5.1,23.6-14.5,34.9-7.6,9.1-18,17.7-31.3,25.4l-166.3,96-101.3,58.5c-55.4,32-139.1,35.4-187.1,7.7l-114.7-66.2-179.7-103.7c-7.2-4.1-13.1-8.7-17.8-13.7-9.7-10-14.5-21.5-14.5-33.2h0v-175.8l.4.2c-.1,1-.2,2.1-.3,3.1,0,.9,0,1.7,0,2.6,0,17.6,10.6,34.5,32.4,47l120,69.3,174.4,100.7c48,27.7,131.7,24.2,187.1-7.8l161-92.9,106.5-61.5c.9-.5,1.9-1.1,2.8-1.6,1.6-1,3.2-2,4.7-3,.4-.2.8-.5,1.1-.7,1.5-1,3-2,4.4-3.1,1.9-1.4,3.7-2.8,5.5-4.3,1-.8,2-1.7,3-2.5.9-.8,1.8-1.6,2.6-2.4.7-.6,1.3-1.3,1.9-1.9,3.8-3.8,7-7.7,9.7-11.6.8-1.1,1.5-2.2,2.2-3.4h0c.4-.7.8-1.4,1.2-2.1.8-1.4,1.5-2.8,2.1-4.2.3-.7.6-1.4.9-2.1.2-.6.5-1.1.7-1.7.5-1.3.9-2.7,1.3-4,.2-.7.4-1.3.5-2,.2-.7.3-1.3.4-2,.2-1.3.4-2.7.6-4,.2-1.3.2-2.7.2-4Z"/>
      <path class="st2" d="M712.8,805.1c-31.2,0-61.1-6.3-83.4-19.2l-294.4-170c-7.4-4.3-13.8-9.2-18.8-14.4-10.1-10.4-15.5-22.6-15.7-35.5,0-.2,0-.5,0-.7v-175.8c0-1.4.7-2.7,1.9-3.5,1.2-.8,2.6-1,4-.5,1.8.7,3.4,2.7,3.1,4.7-.1.9-.2,1.9-.2,2.8,0,.9,0,1.7,0,2.4,0,16.7,10.7,32,30.2,43.3l294.4,170c46.7,26.9,128.7,23.5,182.8-7.8l270.7-156.3c1.4-.9,2.8-1.7,4.1-2.6l1.2-.8c1.4-1,2.8-2,4.2-3,1.9-1.4,3.6-2.7,5.2-4.1,1.1-.8,2-1.6,2.8-2.4.9-.8,1.7-1.5,2.5-2.3.7-.7,1.3-1.2,1.8-1.8,3.6-3.6,6.7-7.3,9.3-11,.7-1,1.3-1.9,1.9-2.9,0-.1.1-.2.2-.3.4-.7.8-1.3,1.1-2,.7-1.3,1.4-2.6,2-3.9l.9-2.1c.2-.5.4-1,.6-1.5.4-1.2.8-2.4,1.2-3.6.2-.8.4-1.3.5-1.8l.4-2c.2-1,.4-2.3.5-3.5.1-1.2.2-2.4.2-3.6,0-2.3,2-4.1,4.3-4.2,2.3,0,4.2,1.9,4.2,4.3v170.2c0,.2,0,.4,0,.6-.4,12.5-5.7,25.3-15.4,37-8.1,9.8-19.1,18.6-32.5,26.3l-267.5,154.5c-30.8,17.8-70.4,26.9-108,26.9ZM309.1,564.7c0,.2,0,.5,0,.7,0,10.8,4.6,21.3,13.3,30.3,4.5,4.7,10.2,9,16.9,12.9l294.4,170c46.7,26.9,128.7,23.5,182.8-7.7l267.5-154.5c12.5-7.2,22.7-15.4,30.2-24.4,8.6-10.4,13.3-21.5,13.5-32.2,0-.2,0-.3,0-.4v-141.4s0,0,0,0c-.7,1.2-1.5,2.4-2.3,3.6-2.8,4.1-6.3,8.2-10.2,12.2-.5.6-1.2,1.2-1.9,1.8-1,.9-1.9,1.8-2.9,2.6-.9.9-2,1.8-3.1,2.6-1.7,1.4-3.6,2.9-5.6,4.4-1.4,1.1-2.9,2.1-4.5,3.2l-1.1.7c-1.4.9-2.9,1.9-4.4,2.8l-3.1,1.8-267.9,154.6c-56.4,32.6-142.3,36.1-191.4,7.8l-294.4-170c-11.4-6.6-20.1-14.5-26-23.3v141.8Z"/>
    </g>
    <g>
      <path class="st1" d="M1132,389.6c0,1.3,0,2.7-.2,4,.1-1.3.2-2.7.2-4h0Z"/>
      <path class="st2" d="M1131.7,397.9c-.1,0-.3,0-.4,0-2.3-.2-4-2.3-3.8-4.7.1-1.2.2-2.5.2-3.7,0-1.2.5-2.2,1.4-3,1.3-1.2,3.1-1.5,4.7-.8,1.6.7,2.6,2.3,2.5,4,0,1.5-.1,2.9-.3,4.4-.2,2.2-2.1,3.8-4.3,3.8Z"/>
    </g>
  </g>
  <g>
    <g>
      <path class="st1" d="M1132,628.4h0c0,1.3,0,2.7-.2,4,0,1.2-.3,2.3-.5,3.5-.9,4.8-2.5,9.6-4.9,14.4-.3.7-.6,1.3-1,2-.4.6-.7,1.3-1.1,2-.4.7-.8,1.3-1.2,2-1.7,2.6-3.6,5.2-5.8,7.8-.8.9-1.6,1.8-2.4,2.7-.9.9-1.7,1.9-2.7,2.8-.6.6-1.3,1.3-1.9,1.9,0,0,0,0-.2.2-1.5,1.5-3.1,2.9-4.8,4.3-5.5,4.6-11.8,9-19,13.2l-106.5,61.5-161,92.9c-55.4,32-139.1,35.4-187.1,7.8l-174.4-100.7-120-69.3c-24.1-13.9-34.5-33.1-32-52.7,1.3-10,6.1-20.2,14.1-29.9,4.7,4.9,10.7,9.5,17.8,13.7l179.7,103.7,114.7,66.2c48,27.7,131.7,24.2,187.1-7.7l101.3-58.5,166.3-96c13.3-7.7,23.8-16.3,31.3-25.4,9.8,10.2,14.6,21.7,14.5,33.7Z"/>
      <path class="st2" d="M712.8,874.1c-31.2,0-61.1-6.3-83.4-19.1l-294.4-170c-24.9-14.4-37-34.6-34.1-57,1.5-11.1,6.6-21.9,15.1-32.1l3.1-3.7,3.3,3.5c4.5,4.7,10.1,9,16.9,12.9l294.4,170c46.7,26.9,128.7,23.5,182.8-7.7l267.5-154.5c12.5-7.2,22.7-15.4,30.2-24.4l3.1-3.7,3.3,3.4c10.4,10.8,15.9,23.5,15.7,36.8l-.3,4.2s0,0,0,0c0,1.3-.3,2.6-.5,3.9-1,5.2-2.8,10.4-5.3,15.6-.3.7-.7,1.5-1.2,2.3l-.2.4c-.3.5-.6,1.1-.9,1.6-.3.6-.8,1.3-1.3,2.1-1.7,2.7-3.8,5.5-6.1,8.2-.8,1-1.6,1.9-2.5,2.9-.9.9-1.8,1.9-2.8,2.9-.4.5-.9,1-1.5,1.5h0c0,.1-.8.8-.8.8-1.5,1.4-3.1,2.9-4.9,4.4-5.8,4.8-12.4,9.4-19.6,13.6l-267.5,154.4c-30.8,17.8-70.4,26.9-108,26.9ZM319.7,605c-5.8,7.8-9.2,15.9-10.3,24.1-2.4,18.7,8.2,35.9,29.9,48.4l294.4,170c46.7,26.9,128.7,23.5,182.8-7.8l267.5-154.4c6.8-3.9,13-8.2,18.4-12.7,1.5-1.2,2.9-2.5,4.2-3.8h0c0,0,.6-.6.6-.6.6-.5,1.2-1.1,1.7-1.7,1-1,1.8-1.8,2.6-2.7.8-.9,1.6-1.7,2.3-2.6,2.1-2.4,3.9-4.9,5.4-7.3.4-.6.7-1.1,1-1.7.4-.6.6-1.1.9-1.5l.3-.6c.4-.6.6-1.1.9-1.6,2.3-4.6,3.8-9,4.6-13.4.2-1,.3-2,.4-3.1.1-1.3.2-2.5.2-3.7v-1.2c-.1-9.3-3.6-18-10.1-26-7.7,8.3-17.5,15.9-29.2,22.6l-267.5,154.5c-56.5,32.6-142.3,36.1-191.4,7.7l-294.4-170c-5.8-3.4-10.9-7-15.3-11Z"/>
    </g>
    <g>
      <path class="st1" d="M1132,628.4c0,1.3,0,2.6-.2,4,.1-1.3.2-2.7.2-4h0Z"/>
      <path class="st2" d="M1136,632.9l-4-.4v.3s0-.3,0-.3l-4.5-.5c.1-1.2.2-2.5.2-3.7v-4.2h8.7v4.4c-.1,1.4-.2,2.9-.3,4.3Z"/>
    </g>
    <g>
      <path class="st3" d="M1132,628.4v170.2h0c-.2,11.6-5.1,23.6-14.5,34.9-7.6,9.1-18,17.7-31.3,25.4l-267.5,154.5c-55.4,32-139.1,35.4-187.1,7.7l-294.4-170c-7.2-4.1-13.1-8.7-17.8-13.7-9.7-10-14.5-21.5-14.5-33.2h0v-175.8h.4c-2.6,19.8,7.9,38.9,32,52.8l120,69.3,174.4,100.7c48,27.7,131.7,24.2,187.1-7.8l161-92.9,106.5-61.5c7.2-4.1,13.5-8.6,19-13.2,1.7-1.4,3.3-2.9,4.8-4.3,0,0,.1,0,.2-.2.7-.6,1.3-1.2,1.9-1.9.9-.9,1.8-1.9,2.7-2.8.8-.9,1.6-1.8,2.4-2.7,2.2-2.6,4.1-5.2,5.8-7.8.4-.6.8-1.3,1.2-2,.4-.6.8-1.3,1.1-2,.4-.6.7-1.3,1-2,2.4-4.8,4.1-9.6,4.9-14.4.2-1.2.4-2.3.5-3.5.2-1.3.2-2.7.2-4Z"/>
      <path class="st2" d="M712.8,1043.9c-31.2,0-61.1-6.3-83.4-19.2l-294.4-170c-7.4-4.2-13.7-9.1-18.8-14.4-10.1-10.4-15.5-22.6-15.7-35.5,0-.2,0-.5,0-.7v-175.8c0-1.4.6-2.6,1.7-3.5,1.1-.8,2.5-1,3.8-.6,2,.6,3.6,2.7,3.4,4.8-2.4,18.7,8.2,35.9,29.9,48.5l294.4,170c46.7,26.9,128.7,23.5,182.8-7.8l267.5-154.4c6.8-3.9,13-8.2,18.4-12.7,1.6-1.4,3.2-2.7,4.6-4.1,0,0,.2-.2.3-.3.6-.5,1.2-1.1,1.7-1.7,1-1,1.8-1.8,2.6-2.7.8-.9,1.6-1.7,2.3-2.6,2.1-2.4,3.9-4.9,5.4-7.3.4-.6.7-1.1,1-1.7.5-.8.8-1.3,1.1-1.8.5-.8.7-1.3,1-1.8,2.3-4.6,3.8-9,4.6-13.4.2-1,.3-2,.4-3.1.2-1.4.2-2.5.2-3.7,0-2.3,2-4.4,4.3-4.2,2.3,0,4.2,1.9,4.2,4.3v170.2c0,.2,0,.4,0,.6-.4,12.5-5.7,25.3-15.4,37-8.1,9.8-19.1,18.6-32.5,26.3l-267.5,154.5c-30.8,17.8-70.4,26.9-108,26.9ZM309.1,803.5c0,.2,0,.5,0,.7,0,10.8,4.6,21.3,13.3,30.3,4.6,4.8,10.2,9.1,16.9,12.9l294.4,170c46.7,26.9,128.7,23.5,182.8-7.7l267.5-154.5c12.5-7.2,22.7-15.4,30.2-24.4,8.6-10.4,13.3-21.5,13.5-32.2,0-.2,0-.3,0-.4v-141.4c-.2.5-.7,1.2-1.2,1.9-1.7,2.7-3.8,5.5-6.1,8.2-.8,1-1.6,1.9-2.5,2.9-.9.9-1.8,1.9-2.8,2.9-.6.6-1.2,1.3-1.9,1.9-.1.1-.2.2-.4.3-1.5,1.4-3.1,2.9-4.9,4.4-5.8,4.8-12.4,9.4-19.6,13.6l-267.5,154.4c-56.4,32.6-142.3,36.1-191.4,7.8l-294.4-170c-11.4-6.6-20.1-14.4-26-23.1v141.6Z"/>
    </g>
    <g>
      <path class="st1" d="M1132,628.4c0,1.3,0,2.6-.2,4,.1-1.3.2-2.7.2-4h0Z"/>
      <path class="st2" d="M1131.7,636.7c-.1,0-.3,0-.4,0-2.3-.2-4-2.3-3.8-4.7.1-1.2.2-2.5.2-3.7,0-2.3,2-4.2,4.3-4.2s2.3.5,3.1,1.3c.8.8,1.3,1.9,1.2,3.1,0,1.4-.1,2.9-.3,4.3-.2,2.2-2.1,3.8-4.3,3.8Z"/>
    </g>
  </g>
  <g>
    <g>
      <path class="st1" d="M1132,867.2c0,1.3,0,2.6-.2,4-.3,2.7-.8,5.3-1.5,8-.2.7-.4,1.3-.6,2-.9,2.7-2,5.3-3.3,8-.3.6-.7,1.3-1,2-.7,1.3-1.5,2.6-2.3,3.9-1.6,2.6-3.6,5.2-5.7,7.7-.8.9-1.6,1.8-2.4,2.7-.9.9-1.7,1.9-2.7,2.8-.6.6-1.3,1.3-1.9,1.9-1.7,1.7-3.6,3.3-5.5,4.9-.6.5-1.3,1.1-2,1.6-1.1.9-2.3,1.8-3.5,2.7-1.4,1-2.9,2.1-4.4,3.1-2.7,1.8-5.6,3.7-8.7,5.4l-267.5,154.4c-55.4,32-139.1,35.5-187.1,7.8l-294.4-170c-4.8-2.7-9-5.7-12.7-8.8-.5-.4-1.1-.9-1.6-1.3-1.5-1.3-3-2.7-4.3-4.1-.3-.3-.6-.6-.9-1-.5-.5-.9-1-1.3-1.5-.6-.7-1.1-1.3-1.6-2-.6-.9-1.3-1.7-1.9-2.6-.7-1.1-1.4-2.2-2-3.2-.3-.5-.6-1-.9-1.5-.3-.5-.5-1-.8-1.6-1.5-3.1-2.7-6.3-3.4-9.5-.1-.5-.2-1.1-.3-1.6-.1-.5-.2-1.1-.3-1.6,0-.7-.2-1.3-.2-2,0-.7-.1-1.3-.2-2,0-.9,0-1.7,0-2.5s0-1.6,0-2.5c0-1.1.1-2.2.3-3.3,1.3-10,6.1-20.2,14.1-29.9,4.7,4.9,10.7,9.5,17.8,13.7l294.4,170c48,27.7,131.7,24.2,187.1-7.7l267.5-154.5c13.3-7.7,23.8-16.3,31.3-25.4,9.8,10.2,14.6,21.8,14.5,33.7Z"/>
      <path class="st2" d="M712.8,1112.9c-31.2,0-61.1-6.3-83.4-19.2l-294.4-170c-4.8-2.8-9.3-5.9-13.3-9.2-.5-.4-1.1-.9-1.7-1.5-1.5-1.3-3-2.8-4.5-4.4l-1-1c-.4-.5-.9-1.1-1.4-1.6-.6-.7-1.2-1.4-1.7-2.1-.6-.8-1.2-1.7-1.8-2.5-1-1.5-1.7-2.7-2.4-3.8l-.9-1.5c-.4-.7-.7-1.2-.9-1.8-1.6-3.3-2.9-6.8-3.7-10.4-.2-.8-.3-1.3-.4-1.9,0-.4-.2-1-.3-1.6-.1-.9-.2-1.6-.3-2.3,0-.6-.1-1.4-.2-2.2,0-.8,0-1.7,0-2.7s0-1.9.1-2.8c0-1,.1-2.3.3-3.5,1.5-11,6.6-21.8,15.1-32.1l3.1-3.7,3.3,3.5c4.5,4.7,10.2,9.1,16.9,12.9l294.4,170c46.7,26.9,128.7,23.5,182.8-7.7l267.5-154.5c12.5-7.2,22.7-15.4,30.2-24.4l3.1-3.7,3.3,3.4c10.4,10.8,15.9,23.5,15.7,36.8h0c0,1.5-.1,2.9-.3,4.4-.3,2.8-.8,5.7-1.7,8.6-.2.7-.4,1.5-.7,2.2-.9,2.8-2.1,5.7-3.5,8.6-.3.6-.7,1.3-1.1,2-.8,1.5-1.6,2.9-2.6,4.3-1.7,2.6-3.6,5.3-6,8.2-.8,1-1.6,1.9-2.5,2.9-.9.9-1.8,1.9-2.8,2.9-.6.6-1.3,1.4-2.1,2-1.7,1.7-3.6,3.3-5.7,5.1-.6.5-1.3,1.1-2,1.7-1.1.9-2.3,1.8-3.6,2.8-1.4,1.1-2.9,2.1-4.5,3.2-3.3,2.2-6.2,4-8.9,5.6l-267.5,154.4c-30.8,17.8-70.4,26.9-108,26.9ZM319.7,843.8c-5.8,7.9-9.2,15.9-10.3,24.1-.1,1-.2,1.9-.2,2.8,0,.9,0,1.6,0,2.3s0,1.4,0,2.1c0,.8,0,1.4.1,1.9,0,.8.2,1.3.2,1.9,0,.4.2.9.3,1.4.1.6.2,1,.3,1.4.7,3.1,1.7,6,3.1,8.8.2.5.5,1,.7,1.4l.8,1.4c.6,1,1.2,2,1.9,3,.6.9,1.2,1.6,1.7,2.4.4.6.9,1.1,1.4,1.8.5.6.8,1,1.2,1.4l1,1c1.2,1.3,2.6,2.6,3.9,3.8.5.5.9.8,1.4,1.2,3.7,3.1,7.8,5.9,12.2,8.5l294.4,170c46.7,27,128.7,23.5,182.8-7.8l267.5-154.4c2.6-1.5,5.3-3.1,8.4-5.3,1.4-1,2.8-2,4.2-3,1.2-.9,2.3-1.7,3.4-2.6.7-.5,1.3-1,1.9-1.5,2-1.6,3.7-3.2,5.4-4.7.7-.6,1.3-1.2,1.8-1.8,1-1,1.8-1.8,2.6-2.7.8-.9,1.6-1.7,2.3-2.6,2.2-2.6,3.9-4.9,5.4-7.3.8-1.3,1.6-2.5,2.2-3.7.4-.7.7-1.2.9-1.8,1.3-2.6,2.3-5,3.1-7.5.2-.6.4-1.2.6-1.8.7-2.5,1.2-4.9,1.4-7.3.1-1.2.2-2.4.2-3.6.1-9.6-3.4-18.9-10.2-27.2-7.7,8.3-17.5,15.9-29.2,22.6l-267.5,154.5c-56.5,32.6-142.3,36.1-191.4,7.7l-294.4-170c-5.8-3.3-10.9-7-15.3-11Z"/>
    </g>
    <g>
      <path class="st3" d="M1132,867.2c-.2,21.1-15.7,43.3-45.8,60.6l-267.5,154.5c-55.4,32-139.1,35.4-187.1,7.8l-294.4-170c-24.1-13.9-34.6-33.1-32-52.7l-.4-.2v175.8h0c0,17.6,10.6,34.3,32.3,46.9l294.4,170c48,27.7,131.7,24.2,187.1-7.8l267.5-154.5c29.9-17.3,45.4-39.3,45.8-60.3h0s0-170.2,0-170.2h0Z"/>
      <path class="st2" d="M712.8,1282.7c-31.2,0-61.1-6.3-83.4-19.2l-294.4-170c-22-12.7-34.2-30.4-34.5-50,0-.2,0-.4,0-.6v-169.5c0-.2,0-.3,0-.5v-5.9c0-1.4.7-2.7,1.9-3.5,1.2-.8,2.6-1,4-.5,1.9.7,3.4,2.7,3.1,4.7-2.5,18.7,8.1,35.9,29.9,48.4l294.4,170c46.7,27,128.7,23.5,182.8-7.8l267.5-154.5c27.5-15.9,43.4-36.6,43.6-56.9,0-1.8,1.1-3.3,2.8-4h0c1.3-.5,2.8-.3,4,.5,1.2.8,1.8,2.1,1.8,3.5v170.2c0,.2,0,.5,0,.7-.7,23.1-18.2,46.1-47.9,63.3l-267.5,154.5c-30.8,17.8-70.4,26.9-108,26.9ZM309.1,1042.4c0,.2,0,.4,0,.6,0,16.6,10.7,32,30.2,43.2l294.4,170c46.7,27,128.7,23.5,182.8-7.8l267.5-154.5c27.3-15.8,43.2-36.4,43.6-56.6,0-.2,0-.3,0-.5v-141.4c-8,13.3-21.5,25.8-39.4,36.1l-267.5,154.5c-56.5,32.6-142.3,36.1-191.4,7.8l-294.4-170c-11.4-6.6-20.1-14.4-25.9-23.1v141.7Z"/>
    </g>
  </g>
  <g>
    <path class="st2" d="M657.5,546.6l-206.4-119.2c-33.6-19.4-29.4-53.3,9.4-75.7l187.6-108.3c38.8-22.4,97.5-24.8,131.2-5.4l206.4,119.2c33.6,19.4,29.4,53.3-9.4,75.7l-187.6,108.3c-38.8,22.4-97.5,24.8-131.2,5.4Z"/>
    <path class="st2" d="M714.5,563.9c-22.1,0-43.3-4.5-59.1-13.6l-206.4-119.2c-16-9.2-24.8-22.2-24.8-36.6s12.5-34,34.3-46.5l187.6-108.3c39.9-23.1,100.7-25.5,135.4-5.4l206.4,119.2c16,9.2,24.8,22.2,24.8,36.6,0,17-12.5,34-34.3,46.5l-187.6,108.3c-21.8,12.6-49.8,19-76.4,19ZM722.3,229.2c-25,0-51.4,6.1-72.1,18l-187.6,108.3c-19,11-30,25.3-30,39.1s7.3,21.5,20.6,29.2l206.4,119.2c32.4,18.7,89.3,16.3,126.9-5.4l187.6-108.3c19-11,30-25.3,30-39.1,0-11.2-7.3-21.5-20.6-29.2l-206.4-119.2c-14.6-8.4-34.2-12.6-54.8-12.6Z"/>
  </g>
  <g>
    <path class="st0" d="M677.4,496.3l-139-80.2c-22.6-13.1-19.8-35.9,6.3-51l126.3-72.9c26.1-15.1,65.7-16.7,88.3-3.7l139,80.2c22.6,13.1,19.8,35.9-6.3,51l-126.3,72.9c-26.1,15.1-65.7,16.7-88.3,3.7Z"/>
    <path class="st2" d="M715.7,509.3c-15.2,0-29.7-3.1-40.5-9.3l-139-80.2c-11.2-6.5-17.4-15.7-17.4-25.9s8.7-23.8,23.8-32.6l126.3-72.9c27.3-15.7,68.8-17.4,92.6-3.7l139,80.2c11.2,6.5,17.4,15.7,17.4,25.9s-8.7,23.8-23.8,32.6l-126.3,72.9c-14.9,8.6-34,13-52.1,13ZM679.5,492.5c21.4,12.4,59.1,10.7,84-3.7l126.3-72.9c12.4-7.1,19.5-16.3,19.5-25.1s-4.7-13.5-13.1-18.4l-139-80.2c-21.4-12.4-59.1-10.7-84,3.7l-126.3,72.9c-12.4,7.1-19.5,16.3-19.5,25.1s4.7,13.5,13.1,18.4l139,80.2Z"/>
  </g>
  <path class="st0" d="M531.8,454.2c-2.4,0-4.3-1.9-4.3-4.3v-56.3c0-2.4,1.9-4.3,4.3-4.3s4.3,1.9,4.3,4.3v56.3c0,2.4-1.9,4.3-4.3,4.3Z"/>
  <path class="st0" d="M905,451.5c-2.4,0-4.3-1.9-4.3-4.3v-56.3c0-2.4,1.9-4.3,4.3-4.3s4.3,1.9,4.3,4.3v56.3c0,2.4-1.9,4.3-4.3,4.3Z"/>
  <path class="st2" d="M634.1,750.2c-2.4,0-4.3-1.9-4.3-4.3v-95.4c0-2.4,1.9-4.3,4.3-4.3s4.3,1.9,4.3,4.3v95.4c0,2.4-1.9,4.3-4.3,4.3Z"/>
  <path class="st2" d="M617.3,740.5c-2.4,0-4.3-1.9-4.3-4.3v-95.4c0-2.4,1.9-4.3,4.3-4.3s4.3,1.9,4.3,4.3v95.4c0,2.4-1.9,4.3-4.3,4.3Z"/>
  <path class="st2" d="M600.5,730.8c-2.4,0-4.3-1.9-4.3-4.3v-95.4c0-2.4,1.9-4.3,4.3-4.3s4.3,1.9,4.3,4.3v95.4c0,2.4-1.9,4.3-4.3,4.3Z"/>
  <g>
    <g>
      <path class="st2" d="M388.2,557c0,15.1-10.6,21.2-23.7,13.7-13.1-7.5-23.7-25.9-23.7-41s10.6-21.2,23.7-13.7c13.1,7.5,23.7,25.9,23.7,41Z"/>
      <path class="st2" d="M375.1,578.2c-4,0-8.3-1.3-12.7-3.8-14.5-8.4-25.8-28-25.8-44.7s3.2-15.7,9.1-19c5.9-3.4,13.3-2.8,21,1.7,14.5,8.4,25.8,28,25.8,44.7s-3.2,15.7-9.1,19c-2.5,1.4-5.3,2.2-8.3,2.2ZM353.9,517.1c-1.5,0-2.9.3-4,1-3,1.8-4.8,6-4.8,11.6,0,13.5,9.9,30.6,21.5,37.3,4.9,2.8,9.4,3.4,12.5,1.7,3-1.8,4.8-6,4.8-11.6,0-13.5-9.9-30.6-21.5-37.3-3-1.8-5.9-2.6-8.4-2.6Z"/>
    </g>
    <path class="st1" d="M374.2,569.3c-3.2,0-6.6-1-10-3-11-6.3-19.6-21.3-19.6-34s2.6-12.3,7.3-15c2.1-1.2,4.7-.5,5.9,1.6,1.2,2.1.5,4.7-1.6,5.9-1.9,1.1-3,3.9-3,7.6,0,9.6,7,21.8,15.3,26.6,3.3,1.9,6.3,2.3,8.2,1.1,2-1.3,4.6-.7,5.9,1.3,1.3,2,.7,4.6-1.3,5.9-2.1,1.4-4.6,2-7.2,2Z"/>
  </g>
  <g>
    <g>
      <path class="st2" d="M467.1,602.6c0,15.1-10.6,21.2-23.7,13.7-13.1-7.5-23.7-25.9-23.7-41s10.6-21.2,23.7-13.7c13.1,7.5,23.7,25.9,23.7,41Z"/>
      <path class="st2" d="M454,623.8c-4,0-8.3-1.3-12.7-3.8-14.5-8.4-25.8-28-25.8-44.7s3.2-15.7,9.1-19c5.9-3.4,13.3-2.8,21,1.7,14.5,8.4,25.8,28,25.8,44.7s-3.2,15.7-9.1,19c-2.5,1.4-5.3,2.2-8.3,2.2ZM432.8,562.6c-1.5,0-2.9.3-4,1-3,1.8-4.8,6-4.8,11.6,0,13.5,9.9,30.6,21.5,37.3,4.9,2.8,9.4,3.4,12.5,1.7,3-1.8,4.8-6,4.8-11.6,0-13.5-9.9-30.6-21.5-37.3-3-1.8-5.9-2.6-8.4-2.6Z"/>
    </g>
    <path class="st1" d="M453.1,614.8c-3.2,0-6.6-1-10-3-11-6.4-19.6-21.3-19.6-34s2.6-12.3,7.3-15c2.1-1.2,4.7-.5,5.9,1.6,1.2,2.1.5,4.7-1.6,5.9-1.9,1.1-3,3.9-3,7.6,0,9.6,7,21.8,15.3,26.6,3.3,1.9,6.3,2.3,8.2,1.1,2-1.3,4.6-.7,5.9,1.3,1.3,2,.7,4.6-1.3,5.9-2.1,1.4-4.6,2-7.2,2Z"/>
  </g>
  <g>
    <g>
      <path class="st2" d="M546,648.1c0,15.1-10.6,21.2-23.7,13.7-13.1-7.5-23.7-25.9-23.7-41s10.6-21.2,23.7-13.7c13.1,7.5,23.7,25.9,23.7,41Z"/>
      <path class="st2" d="M532.9,669.3c-4,0-8.3-1.3-12.7-3.8-14.5-8.4-25.8-28-25.8-44.7s3.2-15.7,9.1-19c5.9-3.4,13.3-2.8,21,1.7,14.5,8.4,25.8,28,25.8,44.7s-3.2,15.7-9.1,19c-2.5,1.4-5.3,2.2-8.3,2.2ZM511.7,608.1c-1.5,0-2.9.3-4,1-3,1.8-4.8,6-4.8,11.6,0,13.5,9.9,30.6,21.5,37.3,4.9,2.8,9.4,3.4,12.5,1.7,3-1.8,4.8-6,4.8-11.6,0-13.5-9.9-30.6-21.5-37.3-3-1.8-5.9-2.6-8.4-2.6Z"/>
    </g>
    <path class="st1" d="M532,660.4c-3.2,0-6.6-1-10-3-11-6.3-19.6-21.3-19.6-34s2.6-12.3,7.3-15c2.1-1.2,4.7-.5,5.9,1.6,1.2,2.1.5,4.7-1.6,5.9-1.9,1.1-3,3.9-3,7.6,0,9.6,7,21.8,15.3,26.6,3.3,1.9,6.3,2.3,8.2,1.1,2-1.3,4.6-.7,5.9,1.3,1.3,2,.7,4.6-1.3,5.9-2.1,1.4-4.6,2-7.2,2Z"/>
  </g>
  <path class="st2" d="M634.1,988c-2.4,0-4.3-1.9-4.3-4.3v-95.4c0-2.4,1.9-4.3,4.3-4.3s4.3,1.9,4.3,4.3v95.4c0,2.4-1.9,4.3-4.3,4.3Z"/>
  <path class="st2" d="M617.3,978.3c-2.4,0-4.3-1.9-4.3-4.3v-95.4c0-2.4,1.9-4.3,4.3-4.3s4.3,1.9,4.3,4.3v95.4c0,2.4-1.9,4.3-4.3,4.3Z"/>
  <path class="st2" d="M600.5,968.6c-2.4,0-4.3-1.9-4.3-4.3v-95.4c0-2.4,1.9-4.3,4.3-4.3s4.3,1.9,4.3,4.3v95.4c0,2.4-1.9,4.3-4.3,4.3Z"/>
  <g>
    <g>
      <path class="st2" d="M388.2,794.9c0,15.1-10.6,21.2-23.7,13.7-13.1-7.5-23.7-25.9-23.7-41s10.6-21.2,23.7-13.7c13.1,7.5,23.7,25.9,23.7,41Z"/>
      <path class="st2" d="M375.1,816.1c-4,0-8.3-1.3-12.7-3.8-14.5-8.4-25.8-28-25.8-44.7s3.2-15.7,9.1-19c5.9-3.4,13.3-2.8,21,1.7,14.5,8.4,25.8,28,25.8,44.7s-3.2,15.7-9.1,19c-2.5,1.4-5.3,2.2-8.3,2.2ZM353.9,754.9c-1.5,0-2.9.3-4,1-3,1.8-4.8,6-4.8,11.6,0,13.5,9.9,30.6,21.5,37.3,4.9,2.8,9.4,3.4,12.5,1.7,3-1.8,4.8-6,4.8-11.6,0-13.5-9.9-30.6-21.5-37.3-3-1.8-5.9-2.6-8.4-2.6Z"/>
    </g>
    <path class="st1" d="M374.2,807.1c-3.2,0-6.6-1-10-3-11-6.3-19.6-21.3-19.6-34s2.6-12.3,7.3-15c2.1-1.2,4.7-.5,5.9,1.6,1.2,2.1.5,4.7-1.6,5.9-1.9,1.1-3,3.9-3,7.6,0,9.6,7,21.8,15.3,26.6,3.3,1.9,6.3,2.3,8.2,1.1,2-1.3,4.6-.7,5.9,1.3,1.3,2,.7,4.6-1.3,5.9-2.1,1.4-4.6,2-7.2,2Z"/>
  </g>
  <g>
    <g>
      <path class="st2" d="M467.1,840.4c0,15.1-10.6,21.2-23.7,13.7-13.1-7.5-23.7-25.9-23.7-41s10.6-21.2,23.7-13.7c13.1,7.5,23.7,25.9,23.7,41Z"/>
      <path class="st2" d="M454,861.6c-4,0-8.3-1.3-12.7-3.8-14.5-8.4-25.8-28-25.8-44.7s3.2-15.7,9.1-19c5.9-3.4,13.3-2.8,21,1.7,14.5,8.4,25.8,28,25.8,44.7s-3.2,15.7-9.1,19c-2.5,1.4-5.3,2.2-8.3,2.2ZM432.8,800.4c-1.5,0-2.9.3-4,1-3,1.8-4.8,6-4.8,11.6,0,13.5,9.9,30.6,21.5,37.3,4.9,2.8,9.4,3.4,12.5,1.7,3-1.8,4.8-6,4.8-11.6,0-13.5-9.9-30.6-21.5-37.3-3-1.8-5.9-2.6-8.4-2.6Z"/>
    </g>
    <path class="st1" d="M453.1,852.7c-3.2,0-6.6-1-10-3-11-6.4-19.6-21.3-19.6-34s2.6-12.3,7.3-15c2.1-1.2,4.7-.5,5.9,1.6,1.2,2.1.5,4.7-1.6,5.9-1.9,1.1-3,3.9-3,7.6,0,9.6,7,21.8,15.3,26.6,3.3,1.9,6.3,2.3,8.2,1.1,2-1.3,4.6-.7,5.9,1.3,1.3,2,.7,4.6-1.3,5.9-2.1,1.4-4.6,2-7.2,2Z"/>
  </g>
  <g>
    <g>
      <path class="st2" d="M546,885.9c0,15.1-10.6,21.2-23.7,13.7-13.1-7.5-23.7-25.9-23.7-41s10.6-21.2,23.7-13.7c13.1,7.5,23.7,25.9,23.7,41Z"/>
      <path class="st2" d="M532.9,907.1c-4,0-8.3-1.3-12.7-3.8-14.5-8.4-25.8-28-25.8-44.7s3.2-15.7,9.1-19c5.9-3.4,13.3-2.8,21,1.7,14.5,8.4,25.8,28,25.8,44.7s-3.2,15.7-9.1,19c-2.5,1.4-5.3,2.2-8.3,2.2ZM511.7,846c-1.5,0-2.9.3-4,1-3,1.8-4.8,6-4.8,11.6,0,13.5,9.9,30.6,21.5,37.3,4.9,2.8,9.4,3.4,12.5,1.7,3-1.8,4.8-6,4.8-11.6,0-13.5-9.9-30.6-21.5-37.3-3-1.8-5.9-2.6-8.4-2.6Z"/>
    </g>
    <path class="st1" d="M532,898.2c-3.2,0-6.6-1-10-3-11-6.4-19.6-21.3-19.6-34s2.6-12.3,7.3-15c2.1-1.2,4.7-.5,5.9,1.6,1.2,2.1.5,4.7-1.6,5.9-1.9,1.1-3,3.9-3,7.6,0,9.6,7,21.8,15.3,26.6,3.3,1.9,6.3,2.3,8.2,1.1,2-1.3,4.6-.7,5.9,1.3,1.3,2,.7,4.6-1.3,5.9-2.1,1.4-4.6,2-7.2,2Z"/>
  </g>
  <path class="st2" d="M634.1,1225.9c-2.4,0-4.3-1.9-4.3-4.3v-95.4c0-2.4,1.9-4.3,4.3-4.3s4.3,1.9,4.3,4.3v95.4c0,2.4-1.9,4.3-4.3,4.3Z"/>
  <path class="st2" d="M617.3,1216.2c-2.4,0-4.3-1.9-4.3-4.3v-95.4c0-2.4,1.9-4.3,4.3-4.3s4.3,1.9,4.3,4.3v95.4c0,2.4-1.9,4.3-4.3,4.3Z"/>
  <path class="st2" d="M600.5,1206.4c-2.4,0-4.3-1.9-4.3-4.3v-95.4c0-2.4,1.9-4.3,4.3-4.3s4.3,1.9,4.3,4.3v95.4c0,2.4-1.9,4.3-4.3,4.3Z"/>
  <g>
    <g>
      <path class="st2" d="M388.2,1032.7c0,15.1-10.6,21.2-23.7,13.7-13.1-7.5-23.7-25.9-23.7-41s10.6-21.2,23.7-13.7c13.1,7.5,23.7,25.9,23.7,41Z"/>
      <path class="st2" d="M375.1,1053.9c-4,0-8.3-1.3-12.7-3.8-14.5-8.4-25.8-28-25.8-44.7s3.2-15.7,9.1-19c5.9-3.4,13.3-2.8,21,1.7,14.5,8.4,25.8,28,25.8,44.7s-3.2,15.7-9.1,19c-2.5,1.4-5.3,2.2-8.3,2.2ZM353.9,992.7c-1.5,0-2.9.3-4,1-3,1.8-4.8,6-4.8,11.6,0,13.5,9.9,30.6,21.5,37.3,4.9,2.8,9.4,3.4,12.5,1.7,3-1.8,4.8-6,4.8-11.6,0-13.5-9.9-30.6-21.5-37.3-3-1.8-5.9-2.6-8.4-2.6Z"/>
    </g>
    <path class="st1" d="M374.2,1045c-3.2,0-6.6-1-10-3-11-6.3-19.6-21.3-19.6-34s2.6-12.3,7.3-15c2.1-1.2,4.7-.5,5.9,1.6,1.2,2.1.5,4.7-1.6,5.9-1.9,1.1-3,3.9-3,7.6,0,9.6,7,21.8,15.3,26.6,3.3,1.9,6.3,2.3,8.2,1.1,2-1.3,4.6-.7,5.9,1.3,1.3,2,.7,4.6-1.3,5.9-2.1,1.4-4.6,2-7.2,2Z"/>
  </g>
  <g>
    <g>
      <path class="st2" d="M467.1,1078.2c0,15.1-10.6,21.2-23.7,13.7-13.1-7.5-23.7-25.9-23.7-41s10.6-21.2,23.7-13.7c13.1,7.5,23.7,25.9,23.7,41Z"/>
      <path class="st2" d="M454,1099.4c-4,0-8.3-1.3-12.7-3.8-14.5-8.4-25.8-28-25.8-44.7s3.2-15.7,9.1-19c5.9-3.4,13.3-2.8,21,1.7,14.5,8.4,25.8,28,25.8,44.7s-3.2,15.7-9.1,19c-2.5,1.4-5.3,2.2-8.3,2.2ZM432.8,1038.3c-1.5,0-2.9.3-4,1-3,1.8-4.8,6-4.8,11.6,0,13.5,9.9,30.6,21.5,37.3,4.9,2.8,9.4,3.4,12.5,1.7,3-1.8,4.8-6,4.8-11.6,0-13.5-9.9-30.6-21.5-37.3-3-1.8-5.9-2.6-8.4-2.6Z"/>
    </g>
    <path class="st1" d="M453.1,1090.5c-3.2,0-6.6-1-10-3-11-6.3-19.6-21.3-19.6-34s2.6-12.3,7.3-15c2.1-1.2,4.7-.5,5.9,1.6,1.2,2.1.5,4.7-1.6,5.9-1.9,1.1-3,3.9-3,7.6,0,9.6,7,21.8,15.3,26.6,3.3,1.9,6.3,2.3,8.2,1.1,2-1.3,4.6-.7,5.9,1.3,1.3,2,.7,4.6-1.3,5.9-2.1,1.4-4.6,2-7.2,2Z"/>
  </g>
  <g>
    <g>
      <path class="st2" d="M546,1123.7c0,15.1-10.6,21.2-23.7,13.7-13.1-7.5-23.7-25.9-23.7-41s10.6-21.2,23.7-13.7c13.1,7.5,23.7,25.9,23.7,41Z"/>
      <path class="st2" d="M532.9,1144.9c-4,0-8.3-1.3-12.7-3.8-14.5-8.4-25.8-28-25.8-44.7s3.2-15.7,9.1-19c5.9-3.4,13.3-2.8,21,1.7,14.5,8.4,25.8,28,25.8,44.7s-3.2,15.7-9.1,19c-2.5,1.4-5.3,2.2-8.3,2.2ZM511.7,1083.8c-1.5,0-2.9.3-4,1-3,1.8-4.8,6-4.8,11.6,0,13.5,9.9,30.6,21.5,37.3,4.9,2.8,9.4,3.4,12.5,1.7,3-1.8,4.8-6,4.8-11.6,0-13.5-9.9-30.6-21.5-37.3-3-1.8-5.9-2.6-8.4-2.6Z"/>
    </g>
    <path class="st1" d="M532,1136c-3.2,0-6.6-1-10-3-11-6.3-19.6-21.3-19.6-34s2.6-12.3,7.3-15c2-1.2,4.7-.5,5.9,1.6,1.2,2.1.5,4.7-1.6,5.9-1.9,1.1-3,3.9-3,7.6,0,9.6,7,21.8,15.3,26.6,3.3,1.9,6.3,2.3,8.2,1.1,2-1.3,4.6-.7,5.9,1.3,1.3,2,.7,4.6-1.3,5.9-2.1,1.4-4.6,2-7.2,2Z"/>
  </g>
</svg>