<?xml version="1.0" encoding="UTF-8"?>
<svg id="Layer_1" xmlns="http://www.w3.org/2000/svg" version="1.1" viewBox="0 0 1417.3 1417.3">
  <!-- Generator: Adobe Illustrator 30.4.0, SVG Export Plug-In . SVG Version: 2.1.4 Build 226)  -->
  <defs>
    <style>
      .st0 {
        fill: #00eef9;
      }

      .st1 {
        stroke-width: 2.8px;
      }

      .st1, .st2 {
        fill: none;
      }

      .st1, .st2, .st3 {
        stroke-miterlimit: 10;
      }

      .st1, .st3 {
        stroke: #0b2265;
      }

      .st4, .st3 {
        fill: #fff;
      }

      .st5 {
        fill: #0b2265;
      }

      .st6 {
        opacity: .2;
      }

      .st2 {
        stroke: #00eef9;
        stroke-width: .4px;
      }

      .st3 {
        stroke-width: 2.4px;
      }
    </style>
  </defs>
  <path class="st0" d="M866.4,512.4c83,0,166,0,249.1,0s.8,0,1.2,0,.5,0,.7,0c0,0,.1,0,.2,0,14.5,0,22.5,10.2,22.3,22.7-.6,35.4-.2,70.8-.2,106.2v36c0,36.4,0,72.8,0,109.1,0,9.8-8.3,19.9-18.8,19.9s-.6,0-1,0c-2.9-.2-5.8-.2-8.8-.2-4.7,0-9.3.1-14,.1-31.7,0-63.4,0-95,0-85.5,0-171-.1-256.5-.1s-152.9.1-229.4.5c-18.9.1-37.8.1-56.7.1-29.8,0-59.7,0-89.5-.1-.3,0-.5,0-.8,0-4.1,0-8.3,0-12.4,0s-10.7,0-16-.4c-8.5-.5-17.4-7.4-18.7-17.4-.4-3.2-.7-6.5-.7-9.9,0-33.9,0-67.8,0-101.7v-36c0-34.2,0-68.5,0-102.7,0-3.5.3-7,1-10.4,1.5-7.4,9-15.3,18.7-15.3,12.5,0,25-.4,37.5-.4,162.5,0,325,0,487.4,0M866.4,509.6c-154.6,0-320.6,0-487.4,0-6.7,0-13.6.1-20.2.2-5.7,0-11.6.2-17.4.2-11.2,0-19.7,9-21.5,17.5-.7,3.5-1.1,7.2-1.1,10.9,0,26.7,0,53.3,0,80v22.8s0,36,0,36v22.2c0,26.1,0,53,0,79.5,0,3.2.2,6.7.7,10.2,1.6,12.1,12.1,19.2,21.2,19.8,5.8.4,11.4.4,16.2.4s4.1,0,6.2,0c2.1,0,4.1,0,6.2,0h.8c9.9,0,19.7,0,29.6,0,19.7,0,40,0,60,0s39.7,0,56.7-.1c66.8-.4,137.6-.5,229.4-.5s86.2,0,128.2,0c42,0,85.5,0,128.2,0s66,0,95,0c2.3,0,4.6,0,6.8,0,2.3,0,4.8,0,7.2,0s6,0,8.6.2c.4,0,.7,0,1.1,0,5.4,0,10.6-2.3,14.7-6.4,4.4-4.4,7-10.5,7-16.3,0-26.4,0-53.2,0-79.2,0-10,0-20,0-29.9v-36c0-10,0-20.2,0-30,0-24.9-.2-50.7.3-76.1.1-7.3-2.3-13.9-6.9-18.5-4.5-4.6-10.8-7-18.2-7h-.2s-.7,0-.7,0h-.6s-.6,0-.6,0h-124.5s-124.5,0-124.5,0h0Z"/>
  <polyline class="st2" points="336.7 789.3 730.7 527.8 1124.8 789.3"/>
  <g>
    <polyline class="st2" points="504.3 742.1 405.6 742.1 405.6 573.5 504.3 573.5"/>
    <polyline class="st2" points="519.8 573.5 618.5 573.5 618.5 742.1 519.8 742.1"/>
    <g>
      <line class="st2" x1="512" y1="527.8" x2="512" y2="565.5"/>
      <line class="st2" x1="512" y1="749.1" x2="512" y2="789.3"/>
      <circle class="st2" cx="512" cy="573.2" r="7.7"/>
      <circle class="st2" cx="512" cy="741.4" r="7.7"/>
    </g>
  </g>
  <g>
    <polyline class="st2" points="941.6 742.1 842.9 742.1 842.9 573.5 941.6 573.5"/>
    <polyline class="st2" points="957.1 573.5 1055.9 573.5 1055.9 742.1 957.1 742.1"/>
    <g>
      <line class="st2" x1="949.4" y1="527.8" x2="949.4" y2="565.5"/>
      <line class="st2" x1="949.4" y1="749.1" x2="949.4" y2="789.3"/>
      <circle class="st2" cx="949.4" cy="573.2" r="7.7"/>
      <circle class="st2" cx="949.4" cy="741.4" r="7.7"/>
    </g>
  </g>
  <rect class="st2" x="336.7" y="527.8" width="788.1" height="261.6"/>
  <polyline class="st2" points="336.7 527.8 730.7 789.3 1124.8 527.8"/>
  <g>
    <rect class="st0" x="-1.7" y="640.3" width="1420.7" height="37.5"/>
    <path class="st5" d="M1417.3,642v34.1H0v-34.1h1417.3M1420.7,638.6H-3.4v40.8h1424.1v-40.8h0Z"/>
  </g>
  <g>
    <g>
      <rect class="st4" x="352.4" y="603.4" width="107" height="109.3" rx="6.2" ry="6.2"/>
      <path class="st5" d="M453.2,604.8c2.6,0,4.8,2.2,4.8,4.8v96.9c0,2.6-2.2,4.8-4.8,4.8h-94.6c-2.6,0-4.8-2.2-4.8-4.8v-96.9c0-2.6,2.2-4.8,4.8-4.8h94.6M453.2,602h-94.6c-4.2,0-7.6,3.4-7.6,7.6v96.9c0,4.2,3.4,7.6,7.6,7.6h94.6c4.2,0,7.6-3.4,7.6-7.6v-96.9c0-4.2-3.4-7.6-7.6-7.6h0Z"/>
    </g>
    <g>
      <rect class="st4" x="365.7" y="617.9" width="80.3" height="80.3" rx="9" ry="9"/>
      <path class="st5" d="M437,619.3c4.2,0,7.6,3.4,7.6,7.6v62.3c0,4.2-3.4,7.6-7.6,7.6h-62.3c-4.2,0-7.6-3.4-7.6-7.6v-62.3c0-4.2,3.4-7.6,7.6-7.6h62.3M437,616.5h-62.3c-5.7,0-10.4,4.7-10.4,10.4v62.3c0,5.7,4.7,10.4,10.4,10.4h62.3c5.7,0,10.4-4.7,10.4-10.4v-62.3c0-5.7-4.7-10.4-10.4-10.4h0Z"/>
    </g>
    <g>
      <path class="st4" d="M379.2,626.5h53.3c2.7,0,4.9,2.2,4.9,4.9v53.3c0,2.7-2.2,4.9-4.9,4.9h-53.3c-2.7,0-4.9-2.2-4.9-4.9v-53.3c0-2.7,2.2-4.9,4.9-4.9Z"/>
      <path class="st5" d="M432.5,627.9c1.9,0,3.5,1.6,3.5,3.5v53.3c0,1.9-1.6,3.5-3.5,3.5h-53.3c-1.9,0-3.5-1.6-3.5-3.5v-53.3c0-1.9,1.6-3.5,3.5-3.5h53.3M432.5,625.1h-53.3c-3.5,0-6.3,2.8-6.3,6.3v53.3c0,3.5,2.8,6.3,6.3,6.3h53.3c3.5,0,6.3-2.8,6.3-6.3v-53.3c0-3.5-2.8-6.3-6.3-6.3h0Z"/>
    </g>
    <g>
      <g>
        <path class="st4" d="M374.3,673.4v-30.7h9.4c2.9,0,5.2,2.4,5.2,5.2v20.2c0,2.9-2.4,5.2-5.2,5.2h-9.4Z"/>
        <path class="st5" d="M383.8,644.1c2.1,0,3.9,1.7,3.9,3.9v20.2c0,2.1-1.7,3.9-3.9,3.9h-8v-27.9h8M383.8,641.3h-10.8v33.5h10.8c3.7,0,6.6-3,6.6-6.6v-20.2c0-3.7-3-6.6-6.6-6.6h0Z"/>
      </g>
      <polyline class="st3" points="416.5 677.5 416.5 689.4 395.3 689.4 395.3 677.5 408.2 677.5"/>
      <polyline class="st3" points="395.3 626.7 416.5 626.7 416.5 638.6 403.6 638.6"/>
      <g>
        <path class="st4" d="M427.2,673.4c-2.9,0-5.2-2.4-5.2-5.2v-20.2c0-2.9,2.4-5.2,5.2-5.2h9.4v30.7h-9.4Z"/>
        <path class="st5" d="M435.3,644.1v27.9h-8c-2.1,0-3.9-1.7-3.9-3.9v-20.2c0-2.1,1.7-3.9,3.9-3.9h8M438.1,641.3h-10.8c-3.7,0-6.6,3-6.6,6.6v20.2c0,3.7,3,6.6,6.6,6.6h10.8v-33.5h0Z"/>
      </g>
    </g>
    <g>
      <g>
        <g>
          <path class="st4" d="M361.4,616.3c-1.8,0-3.2-1.5-3.2-3.2s1.5-3.2,3.2-3.2,3.2,1.5,3.2,3.2-1.5,3.2-3.2,3.2Z"/>
          <path class="st5" d="M361.4,610.8c1.2,0,2.3,1,2.3,2.3s-1,2.3-2.3,2.3-2.3-1-2.3-2.3,1-2.3,2.3-2.3M361.4,608.8c-2.3,0-4.2,1.9-4.2,4.2s1.9,4.2,4.2,4.2,4.2-1.9,4.2-4.2-1.9-4.2-4.2-4.2h0Z"/>
        </g>
        <g>
          <path class="st4" d="M361.4,706.6c-1.8,0-3.2-1.5-3.2-3.2s1.5-3.2,3.2-3.2,3.2,1.5,3.2,3.2-1.5,3.2-3.2,3.2Z"/>
          <path class="st5" d="M361.4,701.1c1.2,0,2.3,1,2.3,2.3s-1,2.3-2.3,2.3-2.3-1-2.3-2.3,1-2.3,2.3-2.3M361.4,699.1c-2.3,0-4.2,1.9-4.2,4.2s1.9,4.2,4.2,4.2,4.2-1.9,4.2-4.2-1.9-4.2-4.2-4.2h0Z"/>
        </g>
      </g>
      <g>
        <g>
          <path class="st4" d="M449.9,616.3c-1.8,0-3.2-1.5-3.2-3.2s1.5-3.2,3.2-3.2,3.2,1.5,3.2,3.2-1.5,3.2-3.2,3.2Z"/>
          <path class="st5" d="M449.9,610.8c1.2,0,2.3,1,2.3,2.3s-1,2.3-2.3,2.3-2.3-1-2.3-2.3,1-2.3,2.3-2.3M449.9,608.8c-2.3,0-4.2,1.9-4.2,4.2s1.9,4.2,4.2,4.2,4.2-1.9,4.2-4.2-1.9-4.2-4.2-4.2h0Z"/>
        </g>
        <g>
          <path class="st4" d="M449.9,706.6c-1.8,0-3.2-1.5-3.2-3.2s1.5-3.2,3.2-3.2,3.2,1.5,3.2,3.2-1.5,3.2-3.2,3.2Z"/>
          <path class="st5" d="M449.9,701.1c1.2,0,2.3,1,2.3,2.3s-1,2.3-2.3,2.3-2.3-1-2.3-2.3,1-2.3,2.3-2.3M449.9,699.1c-2.3,0-4.2,1.9-4.2,4.2s1.9,4.2,4.2,4.2,4.2-1.9,4.2-4.2-1.9-4.2-4.2-4.2h0Z"/>
        </g>
      </g>
    </g>
    <g>
      <rect class="st0" x="397.7" y="648.2" width="16.4" height="16.4" rx="5" ry="5"/>
      <path class="st5" d="M409.1,649.6c2,0,3.6,1.6,3.6,3.6v6.5c0,2-1.6,3.6-3.6,3.6h-6.5c-2,0-3.6-1.6-3.6-3.6v-6.5c0-2,1.6-3.6,3.6-3.6h6.5M409.1,646.8h-6.5c-3.5,0-6.4,2.9-6.4,6.4v6.5c0,3.5,2.9,6.4,6.4,6.4h6.5c3.5,0,6.4-2.9,6.4-6.4v-6.5c0-3.5-2.9-6.4-6.4-6.4h0Z"/>
    </g>
    <line class="st1" x1="423.4" y1="656.5" x2="412.7" y2="656.5"/>
  </g>
  <g>
    <g>
      <rect class="st4" x="117.5" y="603.4" width="107" height="109.3" rx="6.2" ry="6.2"/>
      <path class="st5" d="M218.3,604.8c2.6,0,4.8,2.2,4.8,4.8v96.9c0,2.6-2.2,4.8-4.8,4.8h-94.6c-2.6,0-4.8-2.2-4.8-4.8v-96.9c0-2.6,2.2-4.8,4.8-4.8h94.6M218.3,602h-94.6c-4.2,0-7.6,3.4-7.6,7.6v96.9c0,4.2,3.4,7.6,7.6,7.6h94.6c4.2,0,7.6-3.4,7.6-7.6v-96.9c0-4.2-3.4-7.6-7.6-7.6h0Z"/>
    </g>
    <g>
      <path class="st4" d="M139.8,617.9h62.3c5,0,9,4,9,9v62.3c0,5-4,9-9,9h-62.3c-5,0-9-4-9-9v-62.3c0-5,4-9,9-9Z"/>
      <path class="st5" d="M202.1,619.3c4.2,0,7.6,3.4,7.6,7.6v62.3c0,4.2-3.4,7.6-7.6,7.6h-62.3c-4.2,0-7.6-3.4-7.6-7.6v-62.3c0-4.2,3.4-7.6,7.6-7.6h62.3M202.1,616.5h-62.3c-5.7,0-10.4,4.7-10.4,10.4v62.3c0,5.7,4.7,10.4,10.4,10.4h62.3c5.7,0,10.4-4.7,10.4-10.4v-62.3c0-5.7-4.7-10.4-10.4-10.4h0Z"/>
    </g>
    <g>
      <path class="st4" d="M144.3,626.5h53.3c2.7,0,4.9,2.2,4.9,4.9v53.3c0,2.7-2.2,4.9-4.9,4.9h-53.3c-2.7,0-4.9-2.2-4.9-4.9v-53.3c0-2.7,2.2-4.9,4.9-4.9Z"/>
      <path class="st5" d="M197.6,627.9c1.9,0,3.5,1.6,3.5,3.5v53.3c0,1.9-1.6,3.5-3.5,3.5h-53.3c-1.9,0-3.5-1.6-3.5-3.5v-53.3c0-1.9,1.6-3.5,3.5-3.5h53.3M197.6,625.1h-53.3c-3.5,0-6.3,2.8-6.3,6.3v53.3c0,3.5,2.8,6.3,6.3,6.3h53.3c3.5,0,6.3-2.8,6.3-6.3v-53.3c0-3.5-2.8-6.3-6.3-6.3h0Z"/>
    </g>
    <g>
      <g>
        <path class="st4" d="M139.4,673.4v-30.7h9.4c2.9,0,5.2,2.4,5.2,5.2v20.2c0,2.9-2.4,5.2-5.2,5.2h-9.4Z"/>
        <path class="st5" d="M148.8,644.1c2.1,0,3.9,1.7,3.9,3.9v20.2c0,2.1-1.7,3.9-3.9,3.9h-8v-27.9h8M148.8,641.3h-10.8v33.5h10.8c3.7,0,6.6-3,6.6-6.6v-20.2c0-3.7-3-6.6-6.6-6.6h0Z"/>
      </g>
      <polyline class="st3" points="181.6 677.5 181.6 689.4 160.4 689.4 160.4 677.5 173.2 677.5"/>
      <polyline class="st3" points="160.4 626.7 181.6 626.7 181.6 638.6 168.7 638.6"/>
      <g>
        <path class="st4" d="M192.3,673.4c-2.9,0-5.2-2.4-5.2-5.2v-20.2c0-2.9,2.4-5.2,5.2-5.2h9.4v30.7h-9.4Z"/>
        <path class="st5" d="M200.4,644.1v27.9h-8c-2.1,0-3.9-1.7-3.9-3.9v-20.2c0-2.1,1.7-3.9,3.9-3.9h8M203.2,641.3h-10.8c-3.7,0-6.6,3-6.6,6.6v20.2c0,3.7,3,6.6,6.6,6.6h10.8v-33.5h0Z"/>
      </g>
      <g>
        <rect class="st4" x="224.5" y="636.1" width="17.9" height="45.8"/>
        <path class="st5" d="M241,637.5v43h-15.1v-43h15.1M243.8,634.7h-20.7v48.6h20.7v-48.6h0Z"/>
      </g>
      <g>
        <rect class="st4" x="99.3" y="636.1" width="17.9" height="45.8"/>
        <path class="st5" d="M115.7,637.5v43h-15.1v-43h15.1M118.5,634.7h-20.7v48.6h20.7v-48.6h0Z"/>
      </g>
    </g>
    <g>
      <g>
        <g>
          <path class="st4" d="M126.4,616.3c-1.8,0-3.2-1.5-3.2-3.2s1.5-3.2,3.2-3.2,3.2,1.5,3.2,3.2-1.5,3.2-3.2,3.2Z"/>
          <path class="st5" d="M126.4,610.8c1.2,0,2.3,1,2.3,2.3s-1,2.3-2.3,2.3-2.3-1-2.3-2.3,1-2.3,2.3-2.3M126.4,608.8c-2.3,0-4.2,1.9-4.2,4.2s1.9,4.2,4.2,4.2,4.2-1.9,4.2-4.2-1.9-4.2-4.2-4.2h0Z"/>
        </g>
        <g>
          <path class="st4" d="M126.4,706.6c-1.8,0-3.2-1.5-3.2-3.2s1.5-3.2,3.2-3.2,3.2,1.5,3.2,3.2-1.5,3.2-3.2,3.2Z"/>
          <path class="st5" d="M126.4,701.1c1.2,0,2.3,1,2.3,2.3s-1,2.3-2.3,2.3-2.3-1-2.3-2.3,1-2.3,2.3-2.3M126.4,699.1c-2.3,0-4.2,1.9-4.2,4.2s1.9,4.2,4.2,4.2,4.2-1.9,4.2-4.2-1.9-4.2-4.2-4.2h0Z"/>
        </g>
      </g>
      <g>
        <g>
          <path class="st4" d="M214.9,616.3c-1.8,0-3.2-1.5-3.2-3.2s1.5-3.2,3.2-3.2,3.2,1.5,3.2,3.2-1.5,3.2-3.2,3.2Z"/>
          <path class="st5" d="M214.9,610.8c1.2,0,2.3,1,2.3,2.3s-1,2.3-2.3,2.3-2.3-1-2.3-2.3,1-2.3,2.3-2.3M214.9,608.8c-2.3,0-4.2,1.9-4.2,4.2s1.9,4.2,4.2,4.2,4.2-1.9,4.2-4.2-1.9-4.2-4.2-4.2h0Z"/>
        </g>
        <g>
          <path class="st4" d="M214.9,706.6c-1.8,0-3.2-1.5-3.2-3.2s1.5-3.2,3.2-3.2,3.2,1.5,3.2,3.2-1.5,3.2-3.2,3.2Z"/>
          <path class="st5" d="M214.9,701.1c1.2,0,2.3,1,2.3,2.3s-1,2.3-2.3,2.3-2.3-1-2.3-2.3,1-2.3,2.3-2.3M214.9,699.1c-2.3,0-4.2,1.9-4.2,4.2s1.9,4.2,4.2,4.2,4.2-1.9,4.2-4.2-1.9-4.2-4.2-4.2h0Z"/>
        </g>
      </g>
    </g>
    <g>
      <rect class="st0" x="162.8" y="648.2" width="16.4" height="16.4" rx="5" ry="5"/>
      <path class="st5" d="M174.2,649.6c2,0,3.6,1.6,3.6,3.6v6.5c0,2-1.6,3.6-3.6,3.6h-6.5c-2,0-3.6-1.6-3.6-3.6v-6.5c0-2,1.6-3.6,3.6-3.6h6.5M174.2,646.8h-6.5c-3.5,0-6.4,2.9-6.4,6.4v6.5c0,3.5,2.9,6.4,6.4,6.4h6.5c3.5,0,6.4-2.9,6.4-6.4v-6.5c0-3.5-2.9-6.4-6.4-6.4h0Z"/>
    </g>
    <line class="st1" x1="188.5" y1="656.5" x2="177.8" y2="656.5"/>
  </g>
  <g>
    <g>
      <rect class="st4" x="564.4" y="603.4" width="107" height="109.3" rx="6.2" ry="6.2"/>
      <path class="st5" d="M665.3,604.8c2.6,0,4.8,2.2,4.8,4.8v96.9c0,2.6-2.2,4.8-4.8,4.8h-94.6c-2.6,0-4.8-2.2-4.8-4.8v-96.9c0-2.6,2.2-4.8,4.8-4.8h94.6M665.3,602h-94.6c-4.2,0-7.6,3.4-7.6,7.6v96.9c0,4.2,3.4,7.6,7.6,7.6h94.6c4.2,0,7.6-3.4,7.6-7.6v-96.9c0-4.2-3.4-7.6-7.6-7.6h0Z"/>
    </g>
    <g>
      <path class="st4" d="M586.8,617.9h62.3c5,0,9,4,9,9v62.3c0,5-4,9-9,9h-62.3c-5,0-9-4-9-9v-62.3c0-5,4-9,9-9Z"/>
      <path class="st5" d="M649.1,619.3c4.2,0,7.6,3.4,7.6,7.6v62.3c0,4.2-3.4,7.6-7.6,7.6h-62.3c-4.2,0-7.6-3.4-7.6-7.6v-62.3c0-4.2,3.4-7.6,7.6-7.6h62.3M649.1,616.5h-62.3c-5.7,0-10.4,4.7-10.4,10.4v62.3c0,5.7,4.7,10.4,10.4,10.4h62.3c5.7,0,10.4-4.7,10.4-10.4v-62.3c0-5.7-4.7-10.4-10.4-10.4h0Z"/>
    </g>
    <g>
      <rect class="st4" x="586.4" y="626.5" width="63.1" height="63.1" rx="4.9" ry="4.9"/>
      <path class="st5" d="M644.6,627.9c1.9,0,3.5,1.6,3.5,3.5v53.3c0,1.9-1.6,3.5-3.5,3.5h-53.3c-1.9,0-3.5-1.6-3.5-3.5v-53.3c0-1.9,1.6-3.5,3.5-3.5h53.3M644.6,625.1h-53.3c-3.5,0-6.3,2.8-6.3,6.3v53.3c0,3.5,2.8,6.3,6.3,6.3h53.3c3.5,0,6.3-2.8,6.3-6.3v-53.3c0-3.5-2.8-6.3-6.3-6.3h0Z"/>
    </g>
    <g>
      <g>
        <path class="st4" d="M586.4,673.4v-30.7h9.4c2.9,0,5.2,2.4,5.2,5.2v20.2c0,2.9-2.4,5.2-5.2,5.2h-9.4Z"/>
        <path class="st5" d="M595.8,644.1c2.1,0,3.8,1.7,3.8,3.9v20.2c0,2.1-1.7,3.9-3.8,3.9h-8v-27.9h8M595.8,641.3h-10.8v33.5h10.8c3.7,0,6.6-3,6.6-6.6v-20.2c0-3.7-3-6.6-6.6-6.6h0Z"/>
      </g>
      <polyline class="st3" points="628.6 677.5 628.6 689.4 607.3 689.4 607.3 677.5 620.2 677.5"/>
      <polyline class="st3" points="607.3 626.7 628.6 626.7 628.6 638.6 615.7 638.6"/>
      <g>
        <path class="st4" d="M639.3,673.4c-2.9,0-5.2-2.4-5.2-5.2v-20.2c0-2.9,2.4-5.2,5.2-5.2h9.4v30.7h-9.4Z"/>
        <path class="st5" d="M647.3,644.1v27.9h-8c-2.1,0-3.9-1.7-3.9-3.9v-20.2c0-2.1,1.7-3.9,3.9-3.9h8M650.1,641.3h-10.8c-3.7,0-6.6,3-6.6,6.6v20.2c0,3.7,3,6.6,6.6,6.6h10.8v-33.5h0Z"/>
      </g>
    </g>
    <g>
      <g>
        <g>
          <path class="st4" d="M573.4,616.3c-1.8,0-3.2-1.5-3.2-3.2s1.5-3.2,3.2-3.2,3.2,1.5,3.2,3.2-1.5,3.2-3.2,3.2Z"/>
          <path class="st5" d="M573.4,610.8c1.2,0,2.3,1,2.3,2.3s-1,2.3-2.3,2.3-2.3-1-2.3-2.3,1-2.3,2.3-2.3M573.4,608.8c-2.3,0-4.2,1.9-4.2,4.2s1.9,4.2,4.2,4.2,4.2-1.9,4.2-4.2-1.9-4.2-4.2-4.2h0Z"/>
        </g>
        <g>
          <path class="st4" d="M573.4,706.6c-1.8,0-3.2-1.5-3.2-3.2s1.5-3.2,3.2-3.2,3.2,1.5,3.2,3.2-1.5,3.2-3.2,3.2Z"/>
          <path class="st5" d="M573.4,701.1c1.2,0,2.3,1,2.3,2.3s-1,2.3-2.3,2.3-2.3-1-2.3-2.3,1-2.3,2.3-2.3M573.4,699.1c-2.3,0-4.2,1.9-4.2,4.2s1.9,4.2,4.2,4.2,4.2-1.9,4.2-4.2-1.9-4.2-4.2-4.2h0Z"/>
        </g>
      </g>
      <g>
        <g>
          <path class="st4" d="M661.9,616.3c-1.8,0-3.2-1.5-3.2-3.2s1.5-3.2,3.2-3.2,3.2,1.5,3.2,3.2-1.5,3.2-3.2,3.2Z"/>
          <path class="st5" d="M661.9,610.8c1.2,0,2.3,1,2.3,2.3s-1,2.3-2.3,2.3-2.3-1-2.3-2.3,1-2.3,2.3-2.3M661.9,608.8c-2.3,0-4.2,1.9-4.2,4.2s1.9,4.2,4.2,4.2,4.2-1.9,4.2-4.2-1.9-4.2-4.2-4.2h0Z"/>
        </g>
        <g>
          <path class="st4" d="M661.9,706.6c-1.8,0-3.2-1.5-3.2-3.2s1.5-3.2,3.2-3.2,3.2,1.5,3.2,3.2-1.5,3.2-3.2,3.2Z"/>
          <path class="st5" d="M661.9,701.1c1.2,0,2.3,1,2.3,2.3s-1,2.3-2.3,2.3-2.3-1-2.3-2.3,1-2.3,2.3-2.3M661.9,699.1c-2.3,0-4.2,1.9-4.2,4.2s1.9,4.2,4.2,4.2,4.2-1.9,4.2-4.2-1.9-4.2-4.2-4.2h0Z"/>
        </g>
      </g>
    </g>
    <g>
      <rect class="st0" x="609.7" y="648.2" width="16.4" height="16.4" rx="5" ry="5"/>
      <path class="st5" d="M621.2,649.6c2,0,3.6,1.6,3.6,3.6v6.5c0,2-1.6,3.6-3.6,3.6h-6.5c-2,0-3.6-1.6-3.6-3.6v-6.5c0-2,1.6-3.6,3.6-3.6h6.5M621.2,646.8h-6.5c-3.5,0-6.4,2.9-6.4,6.4v6.5c0,3.5,2.9,6.4,6.4,6.4h6.5c3.5,0,6.4-2.9,6.4-6.4v-6.5c0-3.5-2.9-6.4-6.4-6.4h0Z"/>
    </g>
    <line class="st1" x1="635.5" y1="656.5" x2="624.8" y2="656.5"/>
  </g>
  <g>
    <g>
      <rect class="st4" x="789.4" y="603.4" width="107" height="109.3" rx="6.2" ry="6.2"/>
      <path class="st5" d="M890.2,604.8c2.6,0,4.8,2.2,4.8,4.8v96.9c0,2.6-2.2,4.8-4.8,4.8h-94.6c-2.6,0-4.8-2.2-4.8-4.8v-96.9c0-2.6,2.2-4.8,4.8-4.8h94.6M890.2,602h-94.6c-4.2,0-7.6,3.4-7.6,7.6v96.9c0,4.2,3.4,7.6,7.6,7.6h94.6c4.2,0,7.6-3.4,7.6-7.6v-96.9c0-4.2-3.4-7.6-7.6-7.6h0Z"/>
    </g>
    <g>
      <path class="st4" d="M811.8,617.9h62.3c5,0,9,4,9,9v62.3c0,5-4,9-9,9h-62.3c-5,0-9-4-9-9v-62.3c0-5,4-9,9-9Z"/>
      <path class="st5" d="M874.1,619.3c4.2,0,7.6,3.4,7.6,7.6v62.3c0,4.2-3.4,7.6-7.6,7.6h-62.3c-4.2,0-7.6-3.4-7.6-7.6v-62.3c0-4.2,3.4-7.6,7.6-7.6h62.3M874.1,616.5h-62.3c-5.7,0-10.4,4.7-10.4,10.4v62.3c0,5.7,4.7,10.4,10.4,10.4h62.3c5.7,0,10.4-4.7,10.4-10.4v-62.3c0-5.7-4.7-10.4-10.4-10.4h0Z"/>
    </g>
    <g>
      <path class="st4" d="M816.3,626.5h53.3c2.7,0,4.9,2.2,4.9,4.9v53.3c0,2.7-2.2,4.9-4.9,4.9h-53.3c-2.7,0-4.9-2.2-4.9-4.9v-53.3c0-2.7,2.2-4.9,4.9-4.9Z"/>
      <path class="st5" d="M869.6,627.9c1.9,0,3.5,1.6,3.5,3.5v53.3c0,1.9-1.6,3.5-3.5,3.5h-53.3c-1.9,0-3.5-1.6-3.5-3.5v-53.3c0-1.9,1.6-3.5,3.5-3.5h53.3M869.6,625.1h-53.3c-3.5,0-6.3,2.8-6.3,6.3v53.3c0,3.5,2.8,6.3,6.3,6.3h53.3c3.5,0,6.3-2.8,6.3-6.3v-53.3c0-3.5-2.8-6.3-6.3-6.3h0Z"/>
    </g>
    <g>
      <g>
        <path class="st4" d="M811.4,673.4v-30.7h9.4c2.9,0,5.2,2.4,5.2,5.2v20.2c0,2.9-2.4,5.2-5.2,5.2h-9.4Z"/>
        <path class="st5" d="M820.8,644.1c2.1,0,3.9,1.7,3.9,3.9v20.2c0,2.1-1.7,3.9-3.9,3.9h-8v-27.9h8M820.8,641.3h-10.8v33.5h10.8c3.7,0,6.6-3,6.6-6.6v-20.2c0-3.7-3-6.6-6.6-6.6h0Z"/>
      </g>
      <polyline class="st3" points="853.5 677.5 853.5 689.4 832.3 689.4 832.3 677.5 845.2 677.5"/>
      <polyline class="st3" points="832.3 626.7 853.5 626.7 853.5 638.6 840.6 638.6"/>
      <g>
        <path class="st4" d="M864.3,673.4c-2.9,0-5.2-2.4-5.2-5.2v-20.2c0-2.9,2.4-5.2,5.2-5.2h9.4v30.7h-9.4Z"/>
        <path class="st5" d="M872.3,644.1v27.9h-8c-2.1,0-3.8-1.7-3.8-3.9v-20.2c0-2.1,1.7-3.9,3.8-3.9h8M875.1,641.3h-10.8c-3.7,0-6.6,3-6.6,6.6v20.2c0,3.7,3,6.6,6.6,6.6h10.8v-33.5h0Z"/>
      </g>
    </g>
    <g>
      <g>
        <g>
          <path class="st4" d="M798.4,616.3c-1.8,0-3.2-1.5-3.2-3.2s1.5-3.2,3.2-3.2,3.2,1.5,3.2,3.2-1.5,3.2-3.2,3.2Z"/>
          <path class="st5" d="M798.4,610.8c1.2,0,2.3,1,2.3,2.3s-1,2.3-2.3,2.3-2.3-1-2.3-2.3,1-2.3,2.3-2.3M798.4,608.8c-2.3,0-4.2,1.9-4.2,4.2s1.9,4.2,4.2,4.2,4.2-1.9,4.2-4.2-1.9-4.2-4.2-4.2h0Z"/>
        </g>
        <g>
          <path class="st4" d="M798.4,706.6c-1.8,0-3.2-1.5-3.2-3.2s1.5-3.2,3.2-3.2,3.2,1.5,3.2,3.2-1.5,3.2-3.2,3.2Z"/>
          <path class="st5" d="M798.4,701.1c1.2,0,2.3,1,2.3,2.3s-1,2.3-2.3,2.3-2.3-1-2.3-2.3,1-2.3,2.3-2.3M798.4,699.1c-2.3,0-4.2,1.9-4.2,4.2s1.9,4.2,4.2,4.2,4.2-1.9,4.2-4.2-1.9-4.2-4.2-4.2h0Z"/>
        </g>
      </g>
      <g>
        <g>
          <path class="st4" d="M886.9,616.3c-1.8,0-3.2-1.5-3.2-3.2s1.5-3.2,3.2-3.2,3.2,1.5,3.2,3.2-1.5,3.2-3.2,3.2Z"/>
          <path class="st5" d="M886.9,610.8c1.2,0,2.3,1,2.3,2.3s-1,2.3-2.3,2.3-2.3-1-2.3-2.3,1-2.3,2.3-2.3M886.9,608.8c-2.3,0-4.2,1.9-4.2,4.2s1.9,4.2,4.2,4.2,4.2-1.9,4.2-4.2-1.9-4.2-4.2-4.2h0Z"/>
        </g>
        <g>
          <path class="st4" d="M886.9,706.6c-1.8,0-3.2-1.5-3.2-3.2s1.5-3.2,3.2-3.2,3.2,1.5,3.2,3.2-1.5,3.2-3.2,3.2Z"/>
          <path class="st5" d="M886.9,701.1c1.2,0,2.3,1,2.3,2.3s-1,2.3-2.3,2.3-2.3-1-2.3-2.3,1-2.3,2.3-2.3M886.9,699.1c-2.3,0-4.2,1.9-4.2,4.2s1.9,4.2,4.2,4.2,4.2-1.9,4.2-4.2-1.9-4.2-4.2-4.2h0Z"/>
        </g>
      </g>
    </g>
    <g>
      <rect class="st0" x="834.7" y="648.2" width="16.4" height="16.4" rx="5" ry="5"/>
      <path class="st5" d="M846.2,649.6c2,0,3.6,1.6,3.6,3.6v6.5c0,2-1.6,3.6-3.6,3.6h-6.5c-2,0-3.6-1.6-3.6-3.6v-6.5c0-2,1.6-3.6,3.6-3.6h6.5M846.2,646.8h-6.5c-3.5,0-6.4,2.9-6.4,6.4v6.5c0,3.5,2.9,6.4,6.4,6.4h6.5c3.5,0,6.4-2.9,6.4-6.4v-6.5c0-3.5-2.9-6.4-6.4-6.4h0Z"/>
    </g>
    <line class="st1" x1="860.4" y1="656.5" x2="849.7" y2="656.5"/>
  </g>
  <g>
    <g>
      <rect class="st4" x="1002.3" y="603.4" width="107" height="109.3" rx="6.2" ry="6.2"/>
      <path class="st5" d="M1103.2,604.8c2.6,0,4.8,2.2,4.8,4.8v96.9c0,2.6-2.2,4.8-4.8,4.8h-94.6c-2.6,0-4.8-2.2-4.8-4.8v-96.9c0-2.6,2.2-4.8,4.8-4.8h94.6M1103.2,602h-94.6c-4.2,0-7.6,3.4-7.6,7.6v96.9c0,4.2,3.4,7.6,7.6,7.6h94.6c4.2,0,7.6-3.4,7.6-7.6v-96.9c0-4.2-3.4-7.6-7.6-7.6h0Z"/>
    </g>
    <g>
      <rect class="st4" x="1015.7" y="617.9" width="80.3" height="80.3" rx="9" ry="9"/>
      <path class="st5" d="M1087,619.3c4.2,0,7.6,3.4,7.6,7.6v62.3c0,4.2-3.4,7.6-7.6,7.6h-62.3c-4.2,0-7.6-3.4-7.6-7.6v-62.3c0-4.2,3.4-7.6,7.6-7.6h62.3M1087,616.5h-62.3c-5.7,0-10.4,4.7-10.4,10.4v62.3c0,5.7,4.7,10.4,10.4,10.4h62.3c5.7,0,10.4-4.7,10.4-10.4v-62.3c0-5.7-4.7-10.4-10.4-10.4h0Z"/>
    </g>
    <g>
      <path class="st4" d="M1029.2,626.5h53.3c2.7,0,4.9,2.2,4.9,4.9v53.3c0,2.7-2.2,4.9-4.9,4.9h-53.3c-2.7,0-4.9-2.2-4.9-4.9v-53.3c0-2.7,2.2-4.9,4.9-4.9Z"/>
      <path class="st5" d="M1082.5,627.9c1.9,0,3.5,1.6,3.5,3.5v53.3c0,1.9-1.6,3.5-3.5,3.5h-53.3c-1.9,0-3.5-1.6-3.5-3.5v-53.3c0-1.9,1.6-3.5,3.5-3.5h53.3M1082.5,625.1h-53.3c-3.5,0-6.3,2.8-6.3,6.3v53.3c0,3.5,2.8,6.3,6.3,6.3h53.3c3.5,0,6.3-2.8,6.3-6.3v-53.3c0-3.5-2.8-6.3-6.3-6.3h0Z"/>
    </g>
    <g>
      <g>
        <path class="st4" d="M1024.3,673.4v-30.7h9.4c2.9,0,5.2,2.4,5.2,5.2v20.2c0,2.9-2.4,5.2-5.2,5.2h-9.4Z"/>
        <path class="st5" d="M1033.7,644.1c2.1,0,3.9,1.7,3.9,3.9v20.2c0,2.1-1.7,3.9-3.9,3.9h-8v-27.9h8M1033.7,641.3h-10.8v33.5h10.8c3.7,0,6.6-3,6.6-6.6v-20.2c0-3.7-3-6.6-6.6-6.6h0Z"/>
      </g>
      <polyline class="st3" points="1066.5 677.5 1066.5 689.4 1045.2 689.4 1045.2 677.5 1058.1 677.5"/>
      <polyline class="st3" points="1045.2 626.7 1066.5 626.7 1066.5 638.6 1053.6 638.6"/>
      <g>
        <path class="st4" d="M1077.2,673.4c-2.9,0-5.2-2.4-5.2-5.2v-20.2c0-2.9,2.4-5.2,5.2-5.2h9.4v30.7h-9.4Z"/>
        <path class="st5" d="M1085.2,644.1v27.9h-8c-2.1,0-3.9-1.7-3.9-3.9v-20.2c0-2.1,1.7-3.9,3.9-3.9h8M1088,641.3h-10.8c-3.7,0-6.6,3-6.6,6.6v20.2c0,3.7,3,6.6,6.6,6.6h10.8v-33.5h0Z"/>
      </g>
    </g>
    <g>
      <g>
        <g>
          <path class="st4" d="M1011.3,616.3c-1.8,0-3.2-1.5-3.2-3.2s1.5-3.2,3.2-3.2,3.2,1.5,3.2,3.2-1.5,3.2-3.2,3.2Z"/>
          <path class="st5" d="M1011.3,610.8c1.2,0,2.3,1,2.3,2.3s-1,2.3-2.3,2.3-2.3-1-2.3-2.3,1-2.3,2.3-2.3M1011.3,608.8c-2.3,0-4.2,1.9-4.2,4.2s1.9,4.2,4.2,4.2,4.2-1.9,4.2-4.2-1.9-4.2-4.2-4.2h0Z"/>
        </g>
        <g>
          <path class="st4" d="M1011.3,706.6c-1.8,0-3.2-1.5-3.2-3.2s1.5-3.2,3.2-3.2,3.2,1.5,3.2,3.2-1.5,3.2-3.2,3.2Z"/>
          <path class="st5" d="M1011.3,701.1c1.2,0,2.3,1,2.3,2.3s-1,2.3-2.3,2.3-2.3-1-2.3-2.3,1-2.3,2.3-2.3M1011.3,699.1c-2.3,0-4.2,1.9-4.2,4.2s1.9,4.2,4.2,4.2,4.2-1.9,4.2-4.2-1.9-4.2-4.2-4.2h0Z"/>
        </g>
      </g>
      <g>
        <g>
          <path class="st4" d="M1099.8,616.3c-1.8,0-3.2-1.5-3.2-3.2s1.5-3.2,3.2-3.2,3.2,1.5,3.2,3.2-1.5,3.2-3.2,3.2Z"/>
          <path class="st5" d="M1099.8,610.8c1.2,0,2.3,1,2.3,2.3s-1,2.3-2.3,2.3-2.3-1-2.3-2.3,1-2.3,2.3-2.3M1099.8,608.8c-2.3,0-4.2,1.9-4.2,4.2s1.9,4.2,4.2,4.2,4.2-1.9,4.2-4.2-1.9-4.2-4.2-4.2h0Z"/>
        </g>
        <g>
          <path class="st4" d="M1099.8,706.6c-1.8,0-3.2-1.5-3.2-3.2s1.5-3.2,3.2-3.2,3.2,1.5,3.2,3.2-1.5,3.2-3.2,3.2Z"/>
          <path class="st5" d="M1099.8,701.1c1.2,0,2.3,1,2.3,2.3s-1,2.3-2.3,2.3-2.3-1-2.3-2.3,1-2.3,2.3-2.3M1099.8,699.1c-2.3,0-4.2,1.9-4.2,4.2s1.9,4.2,4.2,4.2,4.2-1.9,4.2-4.2-1.9-4.2-4.2-4.2h0Z"/>
        </g>
      </g>
    </g>
    <g>
      <rect class="st0" x="1047.6" y="648.2" width="16.4" height="16.4" rx="5" ry="5"/>
      <path class="st5" d="M1059.1,649.6c2,0,3.6,1.6,3.6,3.6v6.5c0,2-1.6,3.6-3.6,3.6h-6.5c-2,0-3.6-1.6-3.6-3.6v-6.5c0-2,1.6-3.6,3.6-3.6h6.5M1059.1,646.8h-6.5c-3.5,0-6.4,2.9-6.4,6.4v6.5c0,3.5,2.9,6.4,6.4,6.4h6.5c3.5,0,6.4-2.9,6.4-6.4v-6.5c0-3.5-2.9-6.4-6.4-6.4h0Z"/>
    </g>
    <line class="st1" x1="1073.4" y1="656.5" x2="1062.7" y2="656.5"/>
  </g>
  <g>
    <g>
      <rect class="st4" x="1193.2" y="603.4" width="107" height="109.3" rx="6.2" ry="6.2"/>
      <path class="st5" d="M1294.1,604.8c2.6,0,4.8,2.2,4.8,4.8v96.9c0,2.6-2.2,4.8-4.8,4.8h-94.6c-2.6,0-4.8-2.2-4.8-4.8v-96.9c0-2.6,2.2-4.8,4.8-4.8h94.6M1294.1,602h-94.6c-4.2,0-7.6,3.4-7.6,7.6v96.9c0,4.2,3.4,7.6,7.6,7.6h94.6c4.2,0,7.6-3.4,7.6-7.6v-96.9c0-4.2-3.4-7.6-7.6-7.6h0Z"/>
    </g>
    <g>
      <rect class="st4" x="1206.6" y="617.9" width="80.3" height="80.3" rx="9" ry="9"/>
      <path class="st5" d="M1277.9,619.3c4.2,0,7.6,3.4,7.6,7.6v62.3c0,4.2-3.4,7.6-7.6,7.6h-62.3c-4.2,0-7.6-3.4-7.6-7.6v-62.3c0-4.2,3.4-7.6,7.6-7.6h62.3M1277.9,616.5h-62.3c-5.7,0-10.4,4.7-10.4,10.4v62.3c0,5.7,4.7,10.4,10.4,10.4h62.3c5.7,0,10.4-4.7,10.4-10.4v-62.3c0-5.7-4.7-10.4-10.4-10.4h0Z"/>
    </g>
    <g>
      <rect class="st4" x="1215.2" y="626.5" width="63.1" height="63.1" rx="4.9" ry="4.9"/>
      <path class="st5" d="M1273.4,627.9c1.9,0,3.5,1.6,3.5,3.5v53.3c0,1.9-1.6,3.5-3.5,3.5h-53.3c-1.9,0-3.5-1.6-3.5-3.5v-53.3c0-1.9,1.6-3.5,3.5-3.5h53.3M1273.4,625.1h-53.3c-3.5,0-6.3,2.8-6.3,6.3v53.3c0,3.5,2.8,6.3,6.3,6.3h53.3c3.5,0,6.3-2.8,6.3-6.3v-53.3c0-3.5-2.8-6.3-6.3-6.3h0Z"/>
    </g>
    <g>
      <g>
        <path class="st4" d="M1215.2,673.4v-30.7h9.4c2.9,0,5.2,2.4,5.2,5.2v20.2c0,2.9-2.4,5.2-5.2,5.2h-9.4Z"/>
        <path class="st5" d="M1224.6,644.1c2.1,0,3.9,1.7,3.9,3.9v20.2c0,2.1-1.7,3.9-3.9,3.9h-8v-27.9h8M1224.6,641.3h-10.8v33.5h10.8c3.7,0,6.6-3,6.6-6.6v-20.2c0-3.7-3-6.6-6.6-6.6h0Z"/>
      </g>
      <polyline class="st3" points="1257.4 677.5 1257.4 689.4 1236.1 689.4 1236.1 677.5 1249 677.5"/>
      <polyline class="st3" points="1236.1 626.7 1257.4 626.7 1257.4 638.6 1244.5 638.6"/>
      <g>
        <path class="st4" d="M1268.1,673.4c-2.9,0-5.2-2.4-5.2-5.2v-20.2c0-2.9,2.4-5.2,5.2-5.2h9.4v30.7h-9.4Z"/>
        <path class="st5" d="M1276.1,644.1v27.9h-8c-2.1,0-3.9-1.7-3.9-3.9v-20.2c0-2.1,1.7-3.9,3.9-3.9h8M1278.9,641.3h-10.8c-3.7,0-6.6,3-6.6,6.6v20.2c0,3.7,3,6.6,6.6,6.6h10.8v-33.5h0Z"/>
      </g>
    </g>
    <g>
      <g>
        <g>
          <path class="st4" d="M1202.2,616.3c-1.8,0-3.2-1.5-3.2-3.2s1.5-3.2,3.2-3.2,3.2,1.5,3.2,3.2-1.5,3.2-3.2,3.2Z"/>
          <path class="st5" d="M1202.2,610.8c1.2,0,2.3,1,2.3,2.3s-1,2.3-2.3,2.3-2.3-1-2.3-2.3,1-2.3,2.3-2.3M1202.2,608.8c-2.3,0-4.2,1.9-4.2,4.2s1.9,4.2,4.2,4.2,4.2-1.9,4.2-4.2-1.9-4.2-4.2-4.2h0Z"/>
        </g>
        <g>
          <path class="st4" d="M1202.2,706.6c-1.8,0-3.2-1.5-3.2-3.2s1.5-3.2,3.2-3.2,3.2,1.5,3.2,3.2-1.5,3.2-3.2,3.2Z"/>
          <path class="st5" d="M1202.2,701.1c1.2,0,2.3,1,2.3,2.3s-1,2.3-2.3,2.3-2.3-1-2.3-2.3,1-2.3,2.3-2.3M1202.2,699.1c-2.3,0-4.2,1.9-4.2,4.2s1.9,4.2,4.2,4.2,4.2-1.9,4.2-4.2-1.9-4.2-4.2-4.2h0Z"/>
        </g>
      </g>
      <g>
        <g>
          <path class="st4" d="M1290.7,616.3c-1.8,0-3.2-1.5-3.2-3.2s1.5-3.2,3.2-3.2,3.2,1.5,3.2,3.2-1.5,3.2-3.2,3.2Z"/>
          <path class="st5" d="M1290.7,610.8c1.2,0,2.3,1,2.3,2.3s-1,2.3-2.3,2.3-2.3-1-2.3-2.3,1-2.3,2.3-2.3M1290.7,608.8c-2.3,0-4.2,1.9-4.2,4.2s1.9,4.2,4.2,4.2,4.2-1.9,4.2-4.2-1.9-4.2-4.2-4.2h0Z"/>
        </g>
        <g>
          <path class="st4" d="M1290.7,706.6c-1.8,0-3.2-1.5-3.2-3.2s1.5-3.2,3.2-3.2,3.2,1.5,3.2,3.2-1.5,3.2-3.2,3.2Z"/>
          <path class="st5" d="M1290.7,701.1c1.2,0,2.3,1,2.3,2.3s-1,2.3-2.3,2.3-2.3-1-2.3-2.3,1-2.3,2.3-2.3M1290.7,699.1c-2.3,0-4.2,1.9-4.2,4.2s1.9,4.2,4.2,4.2,4.2-1.9,4.2-4.2-1.9-4.2-4.2-4.2h0Z"/>
        </g>
      </g>
    </g>
    <g>
      <rect class="st0" x="1238.5" y="648.2" width="16.4" height="16.4" rx="5" ry="5"/>
      <path class="st5" d="M1250,649.6c2,0,3.6,1.6,3.6,3.6v6.5c0,2-1.6,3.6-3.6,3.6h-6.5c-2,0-3.6-1.6-3.6-3.6v-6.5c0-2,1.6-3.6,3.6-3.6h6.5M1250,646.8h-6.5c-3.5,0-6.4,2.9-6.4,6.4v6.5c0,3.5,2.9,6.4,6.4,6.4h6.5c3.5,0,6.4-2.9,6.4-6.4v-6.5c0-3.5-2.9-6.4-6.4-6.4h0Z"/>
    </g>
    <line class="st1" x1="1264.3" y1="656.5" x2="1253.6" y2="656.5"/>
  </g>
  <g>
    <rect class="st4" x="1175.4" y="635.6" width="17.9" height="45.8"/>
    <path class="st5" d="M1191.8,637v43h-15.1v-43h15.1M1194.6,634.2h-20.7v48.6h20.7v-48.6h0Z"/>
  </g>
  <g>
    <rect class="st4" x="1300" y="635.6" width="17.9" height="45.8"/>
    <path class="st5" d="M1316.5,637v43h-15.1v-43h15.1M1319.3,634.2h-20.7v48.6h20.7v-48.6h0Z"/>
  </g>
  <g>
    <line class="st2" x1="730.7" y1="527.8" x2="730.7" y2="584.4"/>
    <line class="st2" x1="730.7" y1="733.7" x2="730.7" y2="790.3"/>
    <circle class="st2" cx="730.7" cy="592.1" r="7.7"/>
    <circle class="st2" cx="730.7" cy="725.9" r="7.7"/>
  </g>
  <g class="st6">
    <circle class="st5" cx="327.3" cy="658.5" r="4.7"/>
    <circle class="st5" cx="342.9" cy="658.5" r="4.7"/>
    <circle class="st5" cx="468.9" cy="658.5" r="4.7"/>
    <circle class="st5" cx="486.5" cy="658.5" r="4.7"/>
    <circle class="st5" cx="681.2" cy="658.5" r="4.7"/>
    <circle class="st5" cx="692.3" cy="658.5" r="4.7"/>
    <circle class="st5" cx="703.9" cy="658.5" r="4.7"/>
    <circle class="st5" cx="728.5" cy="658.5" r="4.7"/>
    <circle class="st5" cx="760.4" cy="658.5" r="4.7"/>
    <circle class="st5" cx="772" cy="658.5" r="4.7"/>
    <circle class="st5" cx="908.2" cy="658.5" r="4.7"/>
    <circle class="st5" cx="919.3" cy="658.5" r="4.7"/>
    <circle class="st5" cx="930.9" cy="658.5" r="4.7"/>
    <circle class="st5" cx="955.4" cy="658.5" r="4.7"/>
    <circle class="st5" cx="987.4" cy="658.5" r="4.7"/>
    <circle class="st5" cx="545.8" cy="658.5" r="4.7"/>
    <circle class="st5" cx="532.1" cy="658.5" r="4.7"/>
    <circle class="st5" cx="1334" cy="658.5" r="4.7"/>
    <circle class="st5" cx="1351.6" cy="658.5" r="4.7"/>
    <circle class="st5" cx="1398.9" cy="658.5" r="4.7"/>
    <circle class="st5" cx="1385.2" cy="658.5" r="4.7"/>
    <circle class="st5" cx="296" cy="658.5" r="4.7"/>
    <circle class="st5" cx="1143.9" cy="658.5" r="4.7"/>
    <circle class="st5" cx="1159.5" cy="658.5" r="4.7"/>
    <circle class="st5" cx="1112.7" cy="658.5" r="4.7"/>
  </g>
</svg>